<svg width="53" height="61" viewBox="0 0 53 61" fill="none" xmlns="http://www.w3.org/2000/svg">
<path d="M31.5094 26.1472C30.8215 20.7803 26.1425 16.514 20.6378 16.514C15.1332 16.514 10.4542 20.7803 9.76611 26.1472H31.5094Z" fill="#FFE37B"/>
<path d="M20.6377 13.7618C13.0688 13.7618 6.87598 19.9546 6.87598 27.5235C6.87598 28.3493 7.42639 28.8997 8.25211 28.8997H33.0228C33.8493 28.8997 34.3989 28.3493 34.3989 27.5235C34.3989 19.9546 28.2061 13.7618 20.6377 13.7618ZM18.298 26.1472C18.7114 25.3215 19.6742 24.7711 20.6377 24.7711C21.6007 24.7711 22.5643 25.3215 22.9768 26.1472H18.298ZM26.0048 26.1472C25.4544 23.8075 23.2526 22.0186 20.6379 22.0186C18.0233 22.0186 15.9591 23.8073 15.2711 26.1472H13.8949C14.583 22.9824 17.3353 20.6425 20.6379 20.6425C23.9406 20.6425 26.6931 22.9824 27.3812 26.1472H26.0048ZM30.1332 26.1472C29.4454 21.4684 25.4544 17.8902 20.6379 17.8902C15.8215 17.8902 11.8305 21.4684 11.1426 26.1472H9.76651C10.4546 20.7803 15.1334 16.5141 20.6381 16.5141C26.1429 16.5141 30.8219 20.7803 31.5098 26.1472H30.1332Z" fill="#004463"/>
<path d="M8.39014 27.5236L11.9683 56.5603C12.1062 57.2483 12.6564 57.7994 13.3445 57.7994H38.8028C39.4911 57.7994 40.0421 57.2485 40.1789 56.5603L43.895 27.5236H8.39014Z" fill="#ECEFF9"/>
<path d="M38.8027 60.5516H13.4821C11.4179 60.5516 9.62837 59.0384 9.35366 56.974L5.49976 26.285C5.49976 25.8719 5.63761 25.4591 5.77527 25.1836C6.04997 24.9087 6.46333 24.7711 6.87589 24.7711H45.4095C45.8221 24.7711 46.2346 24.9087 46.3717 25.1836C46.6472 25.4591 46.7857 25.8717 46.6472 26.285L42.7941 56.8358C42.657 59.0384 40.8669 60.5516 38.8027 60.5516ZM8.38988 27.5235L11.9681 56.5602C12.1059 57.2483 12.6561 57.7993 13.3442 57.7993H38.8025C39.4908 57.7993 40.0418 57.2485 40.1787 56.5602L43.8947 27.5235H8.38988Z" fill="#014463"/>
<path d="M50.9143 37.1567C50.5004 37.1567 49.951 36.8812 49.6753 36.4686L44.1705 26.8355C43.758 26.1474 44.0335 25.3217 44.7215 24.9089C45.4096 24.4957 46.2347 24.7713 46.6473 25.4593L52.152 35.0925C52.5646 35.7805 52.2905 36.6059 51.6022 37.0198C51.3269 37.1567 51.1884 37.1567 50.9143 37.1567Z" fill="#014463"/>
<path d="M1.37143 37.1567C1.09592 37.1567 0.958869 37.1567 0.683359 37.0196C-0.00470889 36.6057 -0.142363 35.7803 0.132945 35.0923L5.63769 25.4591C6.05025 24.771 6.87617 24.6334 7.56424 24.9087C8.25231 25.3213 8.38996 26.1472 8.11466 26.8353L2.60991 36.4684C2.33501 36.8812 1.78399 37.1567 1.37143 37.1567Z" fill="#014463"/>
<path d="M26.1426 42.6613C27.6619 42.6613 28.8957 43.8951 28.8957 45.4137C28.8957 46.9324 27.6621 48.1662 26.1426 48.1662C24.6232 48.1662 23.3901 46.9322 23.3901 45.4137C23.3901 43.8953 24.6234 42.6613 26.1426 42.6613Z" fill="#F04D4E"/>
<path d="M26.1424 50.9183C23.1147 50.9183 20.6377 48.4415 20.6377 45.4137C20.6377 42.3859 23.1145 39.9092 26.1424 39.9092C29.1696 39.9092 31.6476 42.3859 31.6476 45.4137C31.6476 48.4415 29.1696 50.9183 26.1424 50.9183ZM26.1424 42.6613C24.6285 42.6613 23.39 43.9005 23.39 45.4137C23.39 46.9269 24.6285 48.1662 26.1424 48.1662C27.6562 48.1662 28.8955 46.9269 28.8955 45.4137C28.8955 43.9005 27.6562 42.6613 26.1424 42.6613Z" fill="#004463"/>
<path d="M37.1525 46.7899H34.4001C33.5735 46.7899 33.0239 46.2388 33.0239 45.4137C33.0239 44.5886 33.5737 44.0376 34.4001 44.0376H37.1525C37.9777 44.0376 38.5287 44.5886 38.5287 45.4137C38.5287 46.2388 37.9777 46.7899 37.1525 46.7899Z" fill="#014463"/>
<path d="M17.8855 46.7899H15.1332C14.3073 46.7899 13.7571 46.2388 13.7571 45.4137C13.7571 44.5886 14.3075 44.0376 15.1332 44.0376H17.8855C18.7114 44.0376 19.2616 44.5886 19.2616 45.4137C19.2616 46.2388 18.7114 46.7899 17.8855 46.7899Z" fill="#014463"/>
<path d="M43.8952 27.5236H40.7301H8.39014L8.8027 30.6884L12.3811 35.6435C13.6194 37.4322 15.8214 38.5328 18.0235 38.5328H37.1515C38.3908 38.5328 39.3542 39.4964 39.216 40.7341L37.4273 55.3222C37.29 56.0103 36.7392 56.5601 36.0511 56.5601H12.1054V56.6985C12.2432 57.3866 12.7934 57.9364 13.4815 57.9364H38.9414C39.6295 57.9364 40.1791 57.3866 40.3176 56.6985L43.8952 27.5236Z" fill="#84A1C1"/>
<path d="M9.49048 27.5236L13.2065 32.6155C14.0316 33.7162 15.2707 34.4044 16.5092 34.4044H35.6379C37.014 34.4044 38.2531 33.7162 38.9412 32.6155L42.6556 27.5236H9.49048Z" fill="#ECEFF9"/>
<path d="M35.638 37.1566H16.647C14.445 37.1566 12.3808 36.056 11.0046 34.2673L5.77478 26.9733C5.49987 26.5601 5.49987 26.0097 5.63773 25.5971C5.77478 25.184 6.3258 24.7714 6.87621 24.7714H45.4084C45.9594 24.7714 46.3718 25.0469 46.6475 25.4595C46.923 25.8721 46.7848 26.4231 46.5105 26.8356L41.2798 34.2675C40.0419 36.056 37.9777 37.1566 35.638 37.1566ZM9.49063 27.5235L13.2067 32.6155C14.0318 33.7161 15.2709 34.4044 16.5094 34.4044H35.638C37.0142 34.4044 38.2532 33.7161 38.9413 32.6155L42.6558 27.5235H9.49063Z" fill="#014463"/>
<path d="M10.5921 28.8997H41.6936L42.7942 27.5236H9.49146L10.5921 28.8997Z" fill="white"/>
<path d="M24.7662 24.7713L22.0139 1.23848C21.8761 0.550414 21.188 0 20.5 0C19.8119 0.137856 19.2615 0.825924 19.2615 1.51379L22.0137 24.7711H24.7662V24.7713Z" fill="#014463"/>
<path d="M16.0969 24.7712H18.987L12.3811 3.71583C12.1062 3.02777 11.4181 2.6146 10.5924 2.75226C9.9043 3.02777 9.49154 3.85309 9.62879 4.54095L16.0969 24.7712Z" fill="#014463"/>
<path d="M42.5189 24.7712C41.8308 19.4041 37.1512 15.1379 31.6467 15.1379C26.1425 15.1379 21.4637 19.4041 20.7756 24.7712H42.5189Z" fill="#FFE37B"/>
<path d="M31.6467 12.3856C24.0783 12.3856 17.8855 18.5784 17.8855 26.1474C17.8855 26.9733 18.4359 27.5235 19.2616 27.5235H44.0321C44.8586 27.5235 45.4082 26.9731 45.4082 26.1474C45.4082 18.5782 39.2156 12.3856 31.6467 12.3856ZM29.3082 24.7712C29.7207 23.9453 30.6843 23.3951 31.6467 23.3951C32.61 23.3951 33.5738 23.9455 33.9864 24.7712H29.3082ZM37.0142 24.7712C36.4631 22.4313 34.2617 20.6426 31.6465 20.6426C29.0324 20.6426 26.9682 22.4313 26.2802 24.7712H24.904C25.5921 21.6062 28.3446 19.2665 31.6465 19.2665C34.9497 19.2665 37.702 21.6062 38.3903 24.7712H37.0142ZM41.1428 24.7712C40.4547 20.0922 36.4631 16.5142 31.6467 16.5142C26.8302 16.5142 22.8398 20.0924 22.1518 24.7712H20.7756C21.4637 19.4044 26.1425 15.1379 31.6467 15.1379C37.1512 15.1379 41.8308 19.4042 42.5189 24.7712H41.1428Z" fill="#004463"/>
</svg>
