<svg width="22" height="19" viewBox="0 0 22 19" fill="none" xmlns="http://www.w3.org/2000/svg">
<path d="M19.0227 7.66192L19.0227 3.14534L19.0227 1.34118C19.0227 0.600471 18.4223 1.30459e-05 17.6816 1.29811e-05L4.1701 1.17999e-05C3.4294 1.17351e-05 2.82894 0.599402 2.82894 1.34011L2.82894 7.9223C2.82894 8.52561 2.41266 9.0343 1.87829 9.31437C-1.74592 11.2139 0.389969 16.8597 3.9272 15.7336C4.92182 15.4169 6.26368 15.7534 6.86433 16.6071C8.46738 18.8854 11.4159 19.5265 13.6469 17.1067C14.3535 16.3404 15.7093 16.3048 16.6594 16.7333C19.2231 17.8897 21.9177 14.4389 21.9177 12.6796C21.9177 11.3281 21.4944 9.86852 20.2594 9.24783C19.6183 8.92565 19.0227 8.37936 19.0227 7.66192Z" fill="#D680FF"/>
</svg>
