<svg width="54" height="54" viewBox="0 0 54 54" fill="none" xmlns="http://www.w3.org/2000/svg">
<path d="M7.30822 30.3151C7.30822 26.9311 8.19215 23.7503 9.73927 20.9891L6.49157 19.1141C4.6292 22.4251 3.56555 26.2456 3.56555 30.3151C3.56555 34.5832 4.73541 38.5776 6.77011 41.9975L10.0179 40.1223C8.29836 37.2523 7.30822 33.8973 7.30822 30.3151Z" fill="#E7335B"/>
<path d="M26.4485 11.1747V7.43207C17.8802 7.43207 10.413 12.1424 6.49164 19.114L9.73934 20.989C13.0177 15.1384 19.2786 11.1747 26.4485 11.1747Z" fill="#E7335B"/>
<path d="M46.4056 19.1141L43.1579 20.9891C44.7052 23.7503 45.5891 26.9311 45.5891 30.3151C45.5891 33.8973 44.5989 37.2523 42.8793 40.1224L46.1271 41.9976C48.1617 38.5777 49.3316 34.5833 49.3316 30.3152C49.3316 26.2456 48.268 22.4251 46.4056 19.1141Z" fill="#E7335B"/>
<path d="M10.0181 40.1224L6.77026 41.9975C10.76 48.7036 18.079 53.198 26.4486 53.198V49.4555C19.4769 49.4555 13.3647 45.708 10.0181 40.1224Z" fill="#E7335B"/>
<path d="M41.7671 47.313C37.7114 50.9709 32.3404 53.198 26.4487 53.198V49.4555C33.4204 49.4555 39.5326 45.708 42.8792 40.1224L46.127 41.9975C45.3198 43.3544 44.3763 44.6207 43.3153 45.7774L41.7671 47.313Z" fill="#E7335B"/>
<path d="M10.0181 40.1224C13.3648 45.708 19.477 49.4555 26.4488 49.4555V30.6361L10.0181 40.1224Z" fill="#F5AF47"/>
<path d="M26.4487 11.1747C19.2786 11.1747 13.0179 15.1385 9.73938 20.9891L26.4487 30.6362V11.1747Z" fill="#F5AF47"/>
<path d="M9.73947 20.9891C8.19224 23.7503 7.30841 26.9311 7.30841 30.3151C7.30841 33.8973 8.29855 37.2523 10.0181 40.1224L26.4488 30.6361L9.73947 20.9891Z" fill="#F5AF47"/>
<path d="M26.4487 49.4555C33.4205 49.4555 39.5327 45.708 42.8793 40.1224L26.4487 30.6361V49.4555Z" fill="#F5AF47"/>
<path d="M42.8793 40.1224C44.599 37.2523 45.5891 33.8973 45.5891 30.3151C45.5891 26.9311 44.7051 23.7503 43.1579 20.9891L26.4487 30.6362L42.8793 40.1224Z" fill="#F5AF47"/>
<path d="M20.4621 22.2304C19.646 22.2304 18.886 21.7919 18.4785 21.0861C18.1728 20.5568 18.0917 19.9402 18.2498 19.35C18.408 18.7597 18.7865 18.2664 19.3157 17.9609C19.6634 17.7602 20.0582 17.654 20.4572 17.654C21.2733 17.654 22.0334 18.0925 22.4408 18.7983C22.7465 19.3276 22.8276 19.9441 22.6695 20.5343C22.5114 21.1247 22.1326 21.6179 21.6035 21.9235C21.2558 22.1242 20.8611 22.2304 20.4621 22.2304Z" fill="#E7335B"/>
<path d="M32.4399 42.9764C31.6239 42.9764 30.8637 42.5379 30.4562 41.8322C29.8255 40.7396 30.201 39.3377 31.2935 38.7069C31.6413 38.5061 32.0359 38.3999 32.4349 38.3999C33.2511 38.3999 34.0111 38.8385 34.4188 39.5443C34.7243 40.0735 34.8055 40.6901 34.6474 41.2803C34.4893 41.8705 34.1106 42.3639 33.5815 42.6694C33.2335 42.8703 32.8389 42.9764 32.4399 42.9764Z" fill="#E7335B"/>
<path d="M14.4706 32.6028C13.8596 32.6028 13.2851 32.3649 12.853 31.9328C12.4209 31.5007 12.1829 30.9262 12.1829 30.315C12.1829 29.0535 13.2091 28.0272 14.4706 28.0272C15.7323 28.0272 16.7586 29.0535 16.7586 30.315C16.7586 31.5765 15.7323 32.6028 14.4708 32.6028H14.4706Z" fill="#E7335B"/>
<path d="M38.4267 32.6028C37.8155 32.6028 37.241 32.3649 36.8089 31.9328C36.3766 31.5007 36.1387 30.9263 36.1387 30.3151C36.1388 29.0536 37.1651 28.0273 38.4265 28.0273C38.4266 28.0273 38.4267 28.0273 38.4267 28.0273C39.0378 28.0273 39.6122 28.2652 40.0443 28.6973C40.4764 29.1294 40.7145 29.7039 40.7145 30.3151C40.7143 31.5765 39.6882 32.6028 38.4269 32.6028H38.4267Z" fill="#E7335B"/>
<path d="M20.4571 42.9765C20.0581 42.9765 19.6635 42.8703 19.3158 42.6696C18.7865 42.364 18.4079 41.8706 18.2498 41.2804C18.0917 40.69 18.173 40.0736 18.4786 39.5445C18.8861 38.8385 19.6461 38.4001 20.4624 38.4001C20.8612 38.4001 21.2559 38.5062 21.6036 38.707C22.1329 39.0126 22.5114 39.506 22.6695 40.0961C22.8277 40.6864 22.7465 41.3028 22.4408 41.8321C22.0334 42.538 21.2733 42.9765 20.4571 42.9765Z" fill="#E7335B"/>
<path d="M46.9009 14.3589L50.1486 12.4839C46.2272 5.51233 38.76 0.801987 30.1917 0.801987V4.54455C37.3617 4.54455 43.6225 8.50827 46.9009 14.3589Z" fill="#E7335B"/>
<path d="M30.1917 4.54454V24.0061L46.9008 14.3589C43.6225 8.50827 37.3617 4.54454 30.1917 4.54454Z" fill="#F5AF47"/>
<path d="M36.178 15.6002C35.7791 15.6002 35.3845 15.4941 35.0368 15.2933C33.9443 14.6625 33.5688 13.2606 34.1994 12.168C34.607 11.4622 35.3669 11.0237 36.183 11.0237C36.582 11.0237 36.9767 11.1299 37.3246 11.3307C38.417 11.9615 38.7926 13.3635 38.1618 14.4558C37.7545 15.1617 36.9943 15.6002 36.178 15.6002Z" fill="#E7335B"/>
<path d="M47.1047 18.7209L46.707 18.014L43.4604 19.8883L27.2506 29.247V11.9767V10.3727V6.63008H26.4486C18.173 6.63008 10.4895 10.9742 6.20231 18.0209L6.19019 18.014L5.7952 18.7162C5.79436 18.7178 5.79341 18.7192 5.79257 18.7209L5.40381 19.4122L5.41583 19.419C3.67866 22.769 2.76361 26.519 2.76361 30.3151C2.76361 34.3061 3.76894 38.2254 5.67782 41.7021L5.66548 41.7092L6.08103 42.4076L6.48571 43.0878L6.49773 43.0808C8.53085 46.2509 11.3054 48.9116 14.564 50.8059C17.9282 52.7617 21.744 53.8544 25.6467 53.9863V54H26.4487H27.2508V53.9849C32.8295 53.7973 38.148 51.6572 42.3043 47.9084L41.2299 46.7174C37.3686 50.2 32.4318 52.1946 27.2506 52.3815V50.2574V50.2413C27.3529 50.2371 27.455 50.23 27.5573 50.2243C27.64 50.2196 27.7226 50.2162 27.8051 50.2105C27.9486 50.2007 28.0916 50.1879 28.2347 50.175C28.3009 50.169 28.367 50.1645 28.433 50.158C28.6425 50.137 28.8514 50.113 29.0597 50.0855C29.0703 50.0842 29.0806 50.0824 29.091 50.0809C29.2887 50.0545 29.4857 50.0252 29.6823 49.9928C29.7499 49.9818 29.8169 49.9686 29.8843 49.9568C30.0236 49.9324 30.1628 49.9079 30.3014 49.8805C30.381 49.8648 30.4602 49.8473 30.5397 49.8305C30.6655 49.8041 30.7913 49.7777 30.9163 49.7489C31.0008 49.7294 31.0847 49.7085 31.1688 49.6879C31.2885 49.6587 31.4081 49.6293 31.5272 49.5978C31.6134 49.5752 31.6992 49.551 31.7851 49.5272C31.9014 49.4949 32.0174 49.4621 32.133 49.4276C32.2199 49.4018 32.3063 49.375 32.3928 49.348C32.5069 49.3123 32.6208 49.2758 32.7339 49.2382C32.8203 49.2095 32.9065 49.1802 32.9925 49.1503C33.1054 49.1111 33.2178 49.0707 33.3298 49.0294C33.4149 48.998 33.5001 48.9665 33.5847 48.934C33.6973 48.8908 33.8091 48.8462 33.9209 48.8009C34.0038 48.7674 34.087 48.7339 34.1694 48.6992C34.2828 48.6516 34.3953 48.602 34.5078 48.5522C34.5872 48.5169 34.6671 48.4824 34.7461 48.4461C34.8627 48.3927 34.9782 48.337 35.0939 48.2812C35.1675 48.2456 35.2414 48.2111 35.3148 48.1746C35.4413 48.1117 35.5668 48.0459 35.6922 47.9801C35.753 47.9482 35.8144 47.9176 35.8747 47.8851C36.0598 47.7855 36.2436 47.6833 36.4255 47.5776C36.6019 47.4753 36.7764 47.3699 36.9494 47.2622C37.0063 47.2268 37.0622 47.1898 37.1187 47.1538C37.234 47.0805 37.3492 47.007 37.463 46.9313C37.5298 46.887 37.5952 46.841 37.6613 46.7959C37.7634 46.7261 37.8655 46.6563 37.9666 46.5847C38.0358 46.5354 38.1042 46.4848 38.1731 46.4347C38.2688 46.3648 38.3644 46.2948 38.4589 46.2233C38.5288 46.1703 38.5979 46.1164 38.6671 46.0626C38.7586 45.9913 38.85 45.9196 38.9403 45.8467C39.0094 45.7911 39.0779 45.7346 39.1462 45.678C39.2349 45.6044 39.3233 45.5302 39.4108 45.4551C39.4783 45.3973 39.5452 45.3391 39.6119 45.2804C39.6986 45.204 39.7844 45.1268 39.8697 45.0489C39.9349 44.9894 40.0001 44.9298 40.0645 44.8694C40.1496 44.7897 40.2336 44.7088 40.3173 44.6277C40.3798 44.5672 40.4424 44.5068 40.5041 44.4454C40.5886 44.3613 40.6717 44.2759 40.7547 44.1904C40.8134 44.1299 40.8723 44.0699 40.9302 44.0087C41.0163 43.9178 41.1006 43.8254 41.1848 43.7329C41.2376 43.6751 41.2909 43.618 41.343 43.5597C41.4365 43.4546 41.5279 43.3479 41.6193 43.2408C41.66 43.1933 41.7016 43.1465 41.7418 43.0985C41.8724 42.9427 42.0008 42.7848 42.1268 42.6249C42.1391 42.6093 42.1508 42.593 42.1632 42.5773C42.2762 42.4329 42.3874 42.2873 42.4963 42.1398C42.5381 42.0833 42.5783 42.0256 42.6193 41.9687C42.6973 41.8609 42.7752 41.753 42.851 41.6436C42.898 41.576 42.9432 41.5072 42.9893 41.4389C43.0422 41.3606 43.0962 41.2831 43.148 41.204L44.4155 41.9357L45.0094 42.2785C44.3335 43.3248 43.5672 44.3166 42.7243 45.2355L43.9064 46.3198C44.8282 45.3148 45.6633 44.2274 46.3988 43.0806L46.4118 43.0881L46.8163 42.4079C46.8169 42.4071 46.8174 42.4061 46.8179 42.4053L47.2319 41.7097L47.2195 41.7027C49.1282 38.2257 50.1337 34.3065 50.1337 30.3156C50.1336 26.2531 49.0862 22.2438 47.1047 18.7209ZM43.8609 24.5677C43.8748 24.6097 43.8871 24.6522 43.9007 24.6941C43.9443 24.8293 43.9872 24.9647 44.0277 25.1007C44.0469 25.1656 44.0646 25.2312 44.0832 25.2963C44.1157 25.4102 44.148 25.5243 44.1783 25.6387C44.1975 25.7114 44.2153 25.7845 44.2336 25.8575C44.2607 25.9655 44.2875 26.0735 44.3126 26.1819C44.3303 26.2582 44.3468 26.3348 44.3637 26.4114C44.3867 26.5172 44.4094 26.623 44.4306 26.7293C44.4463 26.8077 44.4612 26.8864 44.4759 26.9652C44.4956 27.0705 44.5142 27.1759 44.532 27.2815C44.5453 27.3607 44.5581 27.4401 44.5704 27.5195C44.5868 27.6256 44.602 27.7318 44.6167 27.8382C44.6274 27.9173 44.6383 27.9966 44.6481 28.0759C44.6615 28.1842 44.6732 28.2926 44.6847 28.4012C44.6928 28.4786 44.7014 28.5559 44.7085 28.6334C44.7191 28.7468 44.7275 28.8602 44.736 28.9737C44.7414 29.0467 44.7475 29.1197 44.752 29.1927C44.7597 29.3179 44.765 29.4433 44.7701 29.5688C44.7726 29.6304 44.7764 29.6918 44.7782 29.7534C44.784 29.9404 44.7872 30.1275 44.7872 30.3149C44.7872 30.514 44.7836 30.713 44.7771 30.9115C44.775 30.977 44.7707 31.0426 44.7679 31.108C44.7621 31.2409 44.7564 31.3738 44.7478 31.5066C44.7426 31.5846 44.7355 31.6625 44.7295 31.7405C44.7202 31.8603 44.7109 31.98 44.6991 32.0995C44.691 32.1824 44.6813 32.265 44.6719 32.3477C44.6592 32.462 44.6463 32.5762 44.6313 32.69C44.6203 32.7748 44.6078 32.8595 44.5955 32.944C44.5794 33.0557 44.5626 33.1671 44.5442 33.2782C44.5303 33.3635 44.5153 33.4485 44.5002 33.5334C44.4805 33.6435 44.4601 33.7536 44.4383 33.8634C44.4217 33.9483 44.4044 34.033 44.3863 34.1177C44.363 34.2274 44.3386 34.3367 44.3132 34.446C44.2938 34.5295 44.2745 34.6129 44.2539 34.6961C44.2267 34.8065 44.1979 34.9165 44.1685 35.0264C44.147 35.1073 44.1257 35.1885 44.1031 35.2691C44.0714 35.3819 44.0379 35.494 44.0039 35.6061C43.9806 35.683 43.9581 35.76 43.934 35.8366C43.8962 35.9556 43.8562 36.0739 43.8162 36.192C43.7929 36.2607 43.7707 36.3297 43.7467 36.398C43.6972 36.5384 43.645 36.6777 43.592 36.8168C43.5749 36.8621 43.559 36.9078 43.5413 36.953C43.4696 37.1373 43.3948 37.3204 43.3171 37.5025C43.2999 37.5427 43.2811 37.5822 43.2637 37.6224C43.2023 37.7633 43.1401 37.9042 43.075 38.0437C43.0451 38.1081 43.0132 38.1717 42.9824 38.2356C42.9275 38.35 42.8725 38.4645 42.8151 38.5777C42.7792 38.6485 42.7418 38.7184 42.7049 38.7889C42.664 38.8672 42.6225 38.9454 42.5804 39.0232L28.0528 30.6357L42.8377 22.0995C42.8677 22.1591 42.8976 22.2184 42.9269 22.2782C42.9618 22.3495 42.9967 22.4205 43.0305 22.4923C43.0779 22.5924 43.1236 22.6931 43.169 22.7938C43.2002 22.8631 43.232 22.9321 43.2623 23.0017C43.3092 23.1095 43.3541 23.2181 43.399 23.3267C43.4253 23.3903 43.4525 23.4536 43.478 23.5176C43.5302 23.6484 43.58 23.7803 43.6294 23.9121C43.6451 23.9544 43.6621 23.9965 43.6776 24.0389C43.7413 24.2147 43.8025 24.3908 43.8609 24.5677ZM41.5108 40.7608C41.4478 40.8514 41.3833 40.9409 41.3187 41.0304C41.2738 41.0924 41.2294 41.1548 41.1839 41.2161C41.1148 41.3094 41.0438 41.4012 40.9729 41.4932C40.9299 41.5489 40.8876 41.6053 40.8438 41.6606C40.7601 41.7667 40.6742 41.8711 40.5881 41.9753C40.5556 42.0146 40.524 42.0548 40.4911 42.0938C40.3719 42.2358 40.2505 42.376 40.127 42.5142C40.0945 42.5506 40.0608 42.5858 40.028 42.6219C39.9359 42.7236 39.8433 42.8249 39.7489 42.9245C39.6999 42.9761 39.6496 43.0264 39.6002 43.0774C39.5202 43.16 39.4401 43.2425 39.3584 43.3235C39.3032 43.3785 39.2468 43.4322 39.1907 43.4864C39.1129 43.5617 39.0351 43.6369 38.956 43.7108C38.8969 43.7661 38.8372 43.8203 38.7773 43.8747C38.6992 43.9458 38.6208 44.0165 38.5414 44.0864C38.4798 44.1404 38.4177 44.1938 38.3556 44.2472C38.2759 44.3155 38.1955 44.3832 38.1147 44.45C38.0516 44.5022 37.9881 44.5541 37.9242 44.6056C37.8419 44.6718 37.7591 44.737 37.6758 44.8018C37.6118 44.8515 37.5476 44.9013 37.4829 44.9503C37.3971 45.0151 37.3105 45.0788 37.2235 45.1421C37.1597 45.1886 37.0961 45.2354 37.0318 45.2811C36.9403 45.346 36.8475 45.4095 36.7549 45.4727C36.6935 45.5146 36.6326 45.5571 36.5708 45.5982C36.4676 45.6668 36.3631 45.7335 36.2585 45.7999C36.2056 45.8335 36.1533 45.868 36.1005 45.9012C35.942 45.9997 35.7824 46.096 35.621 46.1896C35.4543 46.2864 35.2861 46.38 35.1166 46.4713C35.0605 46.5016 35.0032 46.5301 34.9469 46.5597C34.8329 46.6196 34.7186 46.6793 34.6035 46.7367C34.5355 46.7704 34.4669 46.8027 34.3985 46.8356C34.2936 46.8862 34.1887 46.9368 34.0829 46.9853C34.0093 47.0189 33.9353 47.0514 33.8614 47.0841C33.7594 47.1292 33.6573 47.1742 33.5545 47.2174C33.478 47.2496 33.4011 47.2807 33.3243 47.3118C33.2228 47.3529 33.121 47.3935 33.0187 47.4329C32.9405 47.4629 32.862 47.4924 32.7835 47.5212C32.6812 47.5589 32.5786 47.5957 32.4756 47.6315C32.3966 47.6591 32.3173 47.6862 32.2379 47.7127C32.1339 47.7473 32.0295 47.7807 31.9248 47.8135C31.846 47.8381 31.7671 47.8629 31.6878 47.8865C31.5806 47.9185 31.4729 47.9488 31.3653 47.9788C31.2878 48.0004 31.2106 48.0224 31.1329 48.0428C31.0202 48.0727 30.907 48.1003 30.7936 48.128C30.7204 48.1459 30.6473 48.1646 30.5739 48.1816C30.4487 48.2106 30.3229 48.2369 30.1973 48.2632C30.135 48.2763 30.0731 48.2906 30.0106 48.3029C29.8286 48.339 29.6461 48.3723 29.4629 48.403C29.4564 48.404 29.4501 48.4053 29.4437 48.4064C29.2542 48.4378 29.0639 48.466 28.8734 48.4914C28.8113 48.4996 28.7491 48.506 28.6871 48.5136C28.5582 48.5294 28.4294 48.5452 28.3001 48.5583C28.2246 48.566 28.1489 48.5718 28.0733 48.5786C27.957 48.5889 27.8407 48.5993 27.7242 48.6075C27.643 48.6132 27.5617 48.6173 27.4805 48.6218C27.404 48.6262 27.3273 48.6299 27.2507 48.6331V32.0253L30.6303 33.9766L41.7547 40.3993C41.7181 40.4547 41.6816 40.51 41.6444 40.5649C41.6001 40.6304 41.5559 40.6959 41.5108 40.7608ZM25.1733 48.6079C25.0565 48.5998 24.94 48.5895 24.8236 48.579C24.7482 48.5723 24.6726 48.5664 24.5974 48.5588C24.4678 48.5456 24.3385 48.5298 24.2093 48.5139C24.1476 48.5063 24.0858 48.5 24.0242 48.4918C23.8334 48.4664 23.6432 48.4382 23.4534 48.4068C23.4484 48.4059 23.4434 48.4049 23.4383 48.4041C23.2538 48.3734 23.0698 48.3397 22.8864 48.3033C22.8245 48.291 22.7631 48.277 22.7014 48.2641C22.5751 48.2377 22.4487 48.2111 22.3231 48.182C22.25 48.1652 22.1774 48.1465 22.1046 48.1287C21.9908 48.1009 21.8772 48.0731 21.764 48.0431C21.6867 48.0227 21.6099 48.0008 21.5328 47.9794C21.4247 47.9493 21.3167 47.9189 21.2091 47.8868C21.1304 47.8633 21.0519 47.8386 20.9733 47.8142C20.8683 47.7812 20.7635 47.7477 20.659 47.713C20.5799 47.6866 20.5011 47.6595 20.4223 47.6322C20.3191 47.5962 20.2161 47.5593 20.1134 47.5215C20.0352 47.4926 19.9571 47.4634 19.8793 47.4336C19.7767 47.3942 19.6743 47.3535 19.5724 47.312C19.4959 47.281 19.4193 47.2501 19.3433 47.218C19.2402 47.1746 19.1376 47.1296 19.0352 47.0842C18.9616 47.0516 18.888 47.0196 18.8148 46.9859C18.7085 46.9372 18.6032 46.8863 18.4979 46.8355C18.4299 46.8027 18.3616 46.7709 18.2942 46.7371C18.1785 46.6795 18.0639 46.6195 17.9493 46.5594C17.8934 46.53 17.8368 46.5018 17.7811 46.4719C17.6116 46.3805 17.4432 46.287 17.2764 46.19C17.115 46.0964 16.9552 45.9999 16.7968 45.9014C16.7441 45.8687 16.6924 45.8345 16.6403 45.8013C16.5352 45.7343 16.4301 45.6674 16.3264 45.5985C16.2648 45.5575 16.2041 45.5151 16.1431 45.4736C16.0501 45.4101 15.9572 45.3466 15.8655 45.2814C15.8013 45.2359 15.7381 45.1894 15.6746 45.1431C15.5873 45.0795 15.5002 45.0157 15.4142 44.9504C15.3497 44.9016 15.2859 44.8521 15.2222 44.8026C15.1386 44.7377 15.0555 44.6721 14.9731 44.6058C14.9094 44.5544 14.8461 44.5028 14.7829 44.4505C14.7019 44.3835 14.6217 44.3159 14.5419 44.2475C14.4797 44.1943 14.4177 44.1408 14.3562 44.0868C14.2769 44.017 14.1983 43.9462 14.1201 43.875C14.0603 43.8206 14.0006 43.7664 13.9415 43.7112C13.8625 43.6373 13.7847 43.5623 13.7069 43.487C13.6508 43.4327 13.5942 43.3788 13.5388 43.3237C13.4576 43.2432 13.378 43.161 13.2984 43.0789C13.2485 43.0275 13.1977 42.9767 13.1485 42.9247C13.0554 42.8264 12.964 42.7264 12.873 42.6261C12.839 42.5886 12.8039 42.552 12.7703 42.5144C12.647 42.3763 12.5258 42.2363 12.4067 42.0947C12.3729 42.0544 12.3401 42.0127 12.3065 41.9721C12.2216 41.8693 12.1368 41.7662 12.054 41.6615C12.0094 41.6052 11.9664 41.5476 11.9224 41.4908C11.8525 41.4001 11.7826 41.3095 11.7143 41.2176C11.6678 41.1549 11.6225 41.0913 11.5767 41.0279C11.5132 40.94 11.4498 40.8518 11.3878 40.7628C11.3416 40.6965 11.2965 40.6295 11.2511 40.5625C11.2146 40.5087 11.1788 40.4542 11.1428 40.3999L25.6469 32.0259V48.6343C25.5701 48.631 25.4933 48.6272 25.4167 48.623C25.3355 48.6176 25.2543 48.6136 25.1733 48.6079ZM10.0816 38.5768C10.0256 38.4661 9.97177 38.3542 9.91808 38.2427C9.88613 38.176 9.85301 38.1101 9.8219 38.0431C9.75883 37.9078 9.6986 37.7713 9.63891 37.6346C9.6195 37.5903 9.59904 37.5467 9.57995 37.5023C9.50254 37.321 9.42808 37.1385 9.35667 36.9549C9.33727 36.9053 9.31976 36.855 9.30099 36.8053C9.24983 36.6706 9.1991 36.5356 9.15133 36.3997C9.12654 36.3293 9.10376 36.2585 9.07982 36.1879C9.04037 36.0717 9.00103 35.9554 8.96391 35.8383C8.93933 35.7603 8.91634 35.682 8.89282 35.6037C8.85939 35.4931 8.82606 35.3822 8.79484 35.271C8.77185 35.189 8.75023 35.1069 8.72829 35.0246C8.69929 34.9159 8.67081 34.8071 8.64392 34.6978C8.62314 34.6138 8.60352 34.5294 8.5839 34.445C8.55891 34.3366 8.53454 34.2281 8.51134 34.1191C8.49331 34.0339 8.4758 33.9485 8.45892 33.863C8.43741 33.7539 8.41695 33.6446 8.39744 33.5351C8.38214 33.4495 8.36717 33.3639 8.35303 33.278C8.33489 33.1674 8.31812 33.0563 8.30199 32.9453C8.28965 32.8603 8.27731 32.7754 8.26602 32.6901C8.25115 32.5766 8.23818 32.4628 8.22552 32.3489C8.21635 32.2657 8.20654 32.1829 8.19831 32.0997C8.1866 31.9806 8.17722 31.8608 8.16794 31.7412C8.16182 31.6632 8.15475 31.5853 8.14969 31.5071C8.14104 31.3745 8.13524 31.2416 8.12944 31.1085C8.1267 31.0429 8.12237 30.9775 8.12026 30.9121C8.11383 30.7135 8.11024 30.5144 8.11024 30.3154C8.11024 30.1281 8.11351 29.9409 8.11931 29.7539C8.12121 29.6923 8.1249 29.6309 8.12744 29.5693C8.1326 29.4439 8.13777 29.3184 8.14547 29.1932C8.15001 29.12 8.15612 29.0469 8.1615 28.974C8.16983 28.8606 8.17827 28.7473 8.18882 28.6341C8.19599 28.5566 8.20443 28.4792 8.21265 28.4018C8.22404 28.2932 8.23596 28.1845 8.24936 28.0761C8.25917 27.997 8.26992 27.9181 8.28068 27.8391C8.29534 27.7325 8.31053 27.6261 8.32698 27.5199C8.33932 27.4405 8.35208 27.3613 8.36548 27.2821C8.3832 27.1763 8.40208 27.0709 8.42169 26.9655C8.43635 26.8869 8.45122 26.8084 8.46683 26.7298C8.48814 26.6234 8.51071 26.5174 8.53381 26.4115C8.55047 26.3351 8.56692 26.2587 8.58464 26.1825C8.60985 26.0736 8.63685 25.965 8.66406 25.8566C8.6822 25.7843 8.69992 25.7117 8.7189 25.6396C8.74938 25.5241 8.78197 25.4092 8.81467 25.2944C8.83302 25.23 8.85042 25.1655 8.86941 25.1014C8.91033 24.9635 8.95378 24.8263 8.99808 24.6895C9.01105 24.6493 9.02287 24.6085 9.03626 24.5683C9.0948 24.3911 9.15618 24.2148 9.21999 24.0394C9.23496 23.9984 9.25131 23.9578 9.2666 23.9169C9.31628 23.7834 9.3668 23.65 9.41974 23.5177C9.44485 23.455 9.47153 23.393 9.49726 23.3305C9.54261 23.2207 9.58807 23.1111 9.63543 23.002C9.66549 22.933 9.69702 22.8647 9.72792 22.796C9.7737 22.6945 9.81968 22.5931 9.86725 22.4924C9.90079 22.4213 9.93549 22.3508 9.96997 22.2801C9.9994 22.2198 10.0296 22.16 10.0596 22.1002L22.4204 29.2367L24.8445 30.6362L10.3171 39.0238C10.2758 38.9475 10.2351 38.8709 10.1949 38.7943C10.1571 38.7217 10.1184 38.6496 10.0816 38.5768ZM11.1126 20.274C11.1837 20.1657 11.2569 20.0591 11.33 19.9526C11.3687 19.8963 11.4066 19.839 11.4458 19.7832C11.5387 19.6513 11.6339 19.5213 11.7299 19.3921C11.7513 19.3634 11.7718 19.3339 11.7933 19.3054C11.9124 19.1471 12.034 18.9911 12.1578 18.8374C12.185 18.8036 12.2133 18.7708 12.2407 18.7373C12.3375 18.6188 12.4348 18.5009 12.5342 18.3852C12.5781 18.3342 12.6233 18.2846 12.6674 18.234C12.7522 18.1374 12.8372 18.0409 12.9239 17.9462C12.9749 17.8907 13.0268 17.8363 13.0783 17.7814C13.1606 17.6939 13.2429 17.6064 13.3266 17.5207C13.3817 17.4643 13.4377 17.4088 13.4936 17.3531C13.5761 17.2707 13.6587 17.1889 13.7427 17.1082C13.8006 17.0526 13.859 16.9978 13.9176 16.9429C14.0016 16.8643 14.0862 16.7863 14.1715 16.7092C14.2313 16.6554 14.2915 16.6019 14.3517 16.549C14.4382 16.473 14.5253 16.398 14.6132 16.3237C14.6741 16.2722 14.7351 16.221 14.7965 16.1703C14.8865 16.0961 14.9773 16.0233 15.0687 15.9511C15.1295 15.9029 15.1903 15.8545 15.2516 15.8071C15.3466 15.7337 15.4427 15.662 15.539 15.5907C15.5984 15.5466 15.6573 15.5023 15.7172 15.459C15.8204 15.3842 15.9252 15.3116 16.03 15.239C16.0842 15.2014 16.1379 15.163 16.1925 15.1262C16.315 15.0434 16.4389 14.9631 16.5631 14.8833C16.6014 14.8588 16.6391 14.8333 16.6776 14.809C17.0069 14.6012 17.3426 14.404 17.6844 14.2174C17.7314 14.1918 17.7792 14.1676 17.8264 14.1422C17.9496 14.0763 18.073 14.011 18.1976 13.948C18.2586 13.9171 18.3204 13.8878 18.3816 13.8576C18.4939 13.8025 18.6061 13.7476 18.7193 13.6948C18.7873 13.6632 18.8557 13.6327 18.9241 13.6019C19.0322 13.5531 19.1404 13.5045 19.2494 13.4578C19.3213 13.427 19.3937 13.3972 19.466 13.3672C19.5729 13.3229 19.68 13.2795 19.7877 13.2373C19.8623 13.2081 19.937 13.1796 20.012 13.1514C20.1189 13.1111 20.2263 13.0718 20.3341 13.0335C20.4101 13.0064 20.4863 12.9798 20.5627 12.9538C20.6712 12.9169 20.78 12.8813 20.889 12.8463C20.9654 12.8218 21.0419 12.7975 21.1185 12.7741C21.2295 12.7402 21.3413 12.7078 21.4529 12.6761C21.5286 12.6545 21.6041 12.6325 21.6801 12.6121C21.7959 12.5807 21.9122 12.5514 22.0287 12.5223C22.1013 12.5043 22.1738 12.4852 22.2466 12.468C22.3729 12.4381 22.4999 12.4108 22.6269 12.3835C22.6907 12.3698 22.7543 12.3549 22.8183 12.342C22.9788 12.3094 23.14 12.2797 23.3015 12.2514C23.3328 12.2458 23.3637 12.2393 23.395 12.2341C23.5883 12.2013 23.7825 12.1715 23.9773 12.1448C24.0306 12.1376 24.0843 12.132 24.1378 12.1251C24.2788 12.1071 24.4199 12.0895 24.5617 12.0747C24.6361 12.067 24.7109 12.0612 24.7857 12.0543C24.907 12.0433 25.0283 12.0321 25.1501 12.0234C25.2325 12.0175 25.315 12.0135 25.3976 12.0087C25.4806 12.0038 25.5637 11.9997 25.6469 11.9959V29.2465L18.1037 24.8915L10.8427 20.6993C10.89 20.623 10.9377 20.5472 10.9858 20.4717C11.0279 20.4061 11.0695 20.3395 11.1126 20.274ZM25.6466 8.24871V10.3889C25.5335 10.3935 25.421 10.4014 25.3083 10.4079C25.2281 10.4125 25.1477 10.4158 25.0677 10.4214C24.9088 10.4324 24.7505 10.4468 24.5922 10.4617C24.5368 10.4669 24.481 10.4705 24.4254 10.4762C24.2121 10.498 23.9995 10.5233 23.7878 10.552C23.7369 10.5589 23.6866 10.5677 23.6359 10.5749C23.4751 10.5979 23.3145 10.6217 23.1548 10.6485C23.0765 10.6617 22.9987 10.6772 22.9206 10.6913C22.789 10.7151 22.6573 10.7387 22.5263 10.7652C22.4405 10.7825 22.3553 10.8018 22.2697 10.8203C22.1474 10.8465 22.0251 10.8731 21.9034 10.9017C21.8144 10.9227 21.7262 10.9452 21.6377 10.9674C21.5202 10.9967 21.4029 11.0263 21.286 11.0579C21.1962 11.0821 21.1068 11.1074 21.0174 11.1331C20.9027 11.1657 20.7881 11.199 20.6743 11.2336C20.5848 11.2608 20.4956 11.2888 20.4065 11.3173C20.2935 11.3535 20.181 11.3904 20.0687 11.4285C19.9802 11.4585 19.8919 11.489 19.804 11.5202C19.6918 11.56 19.5803 11.601 19.469 11.6429C19.3825 11.6754 19.296 11.708 19.2099 11.7417C19.0977 11.7857 18.9862 11.8311 18.8749 11.877C18.7912 11.9115 18.7073 11.9459 18.6239 11.9817C18.5103 12.0303 18.3977 12.0809 18.285 12.1315C18.2056 12.1674 18.1259 12.2025 18.0469 12.2393C17.9288 12.2944 17.8118 12.3519 17.6947 12.4091C17.6228 12.4445 17.5502 12.4787 17.4787 12.5149C17.3475 12.5813 17.2178 12.6501 17.0882 12.7192C17.0322 12.7491 16.9753 12.7778 16.9196 12.8082C16.7341 12.9095 16.55 13.0134 16.3676 13.1203C16.3675 13.1204 16.3674 13.1205 16.3672 13.1205C16.1858 13.227 16.0064 13.3366 15.8284 13.449C15.7731 13.484 15.7188 13.5205 15.6637 13.556C15.5417 13.6346 15.4198 13.7133 15.2995 13.7947C15.2335 13.8392 15.1686 13.8855 15.1033 13.9308C14.9955 14.0056 14.8877 14.0803 14.7812 14.1572C14.712 14.2072 14.6436 14.2586 14.575 14.3097C14.474 14.3846 14.3733 14.4596 14.2738 14.5364C14.2038 14.5904 14.1347 14.6455 14.0654 14.7006C13.969 14.777 13.8728 14.8539 13.7778 14.9323C13.7084 14.9894 13.6397 15.0474 13.5709 15.1054C13.4779 15.1842 13.3854 15.2638 13.2936 15.3442C13.2254 15.4042 13.1576 15.4646 13.0902 15.5253C12.9998 15.6069 12.9102 15.6894 12.8212 15.7727C12.7549 15.8348 12.689 15.897 12.6235 15.96C12.5351 16.045 12.4478 16.1312 12.3608 16.218C12.2971 16.2816 12.2333 16.345 12.1705 16.4096C12.0833 16.4991 11.9973 16.5901 11.9115 16.6814C11.8514 16.7453 11.7911 16.8088 11.7319 16.8734C11.6443 16.9693 11.5581 17.0671 11.4723 17.1648C11.4172 17.2274 11.3616 17.2892 11.3074 17.3524C11.216 17.459 11.1268 17.5676 11.0374 17.6764C10.9909 17.7328 10.9436 17.7885 10.8977 17.8454C10.786 17.9846 10.6765 18.126 10.5682 18.2685C10.5467 18.2968 10.5242 18.3242 10.5029 18.3527C10.3739 18.5243 10.2476 18.6983 10.1237 18.8747C10.088 18.9256 10.0538 18.9779 10.0184 19.0293C9.93179 19.155 9.84542 19.2811 9.76146 19.4091C9.71527 19.4796 9.67087 19.5514 9.62562 19.6226C9.56729 19.714 9.50781 19.8046 9.45086 19.8972L8.24894 19.2033L7.59155 18.8237C11.4535 12.4993 18.2515 8.51797 25.6466 8.24871ZM4.36769 30.3151C4.36769 26.7999 5.20869 23.3278 6.80623 20.2217L7.20564 20.4524L8.66649 21.2957C8.62303 21.381 8.58232 21.4675 8.54024 21.5534C8.5048 21.6256 8.46863 21.6976 8.43403 21.7701C8.37645 21.8914 8.32129 22.0136 8.26613 22.1359C8.23755 22.1993 8.2078 22.2621 8.17996 22.3259C8.10803 22.4902 8.03895 22.6554 7.97145 22.8214C7.96238 22.844 7.95236 22.8663 7.94329 22.8887C7.86735 23.0775 7.79479 23.2675 7.72476 23.4585C7.70292 23.518 7.6831 23.578 7.66179 23.6378C7.61496 23.7696 7.56813 23.9015 7.52394 24.0343C7.49895 24.1098 7.47574 24.1858 7.4517 24.2614C7.41404 24.3794 7.37629 24.4975 7.34095 24.6162C7.31649 24.6981 7.2937 24.7804 7.27029 24.8627C7.23802 24.9764 7.20585 25.0899 7.17547 25.2041C7.1529 25.2893 7.13149 25.3748 7.11008 25.4604C7.08192 25.5725 7.05419 25.6847 7.02792 25.7972C7.00757 25.8844 6.98837 25.9718 6.96918 26.0592C6.94471 26.1711 6.92098 26.2831 6.89841 26.3955C6.88069 26.4837 6.8635 26.5721 6.84704 26.6606C6.82595 26.7732 6.80612 26.8859 6.78693 26.9988C6.77195 27.0872 6.75729 27.1756 6.74347 27.2641C6.72576 27.3784 6.70951 27.493 6.6938 27.6075C6.68167 27.695 6.66965 27.7827 6.65868 27.8704C6.64412 27.9876 6.63147 28.105 6.61902 28.2226C6.61006 28.308 6.60046 28.3934 6.59244 28.479C6.58116 28.6018 6.57188 28.7247 6.56281 28.8477C6.55679 28.9283 6.54983 29.0089 6.54488 29.0896C6.53644 29.2254 6.53085 29.3613 6.52515 29.4974C6.52241 29.5655 6.51819 29.6336 6.51608 29.7018C6.50976 29.9059 6.50628 30.1103 6.50628 30.3148C6.50628 30.5317 6.51028 30.7485 6.51724 30.9648C6.51956 31.0367 6.5242 31.1084 6.52726 31.1803C6.53359 31.3247 6.53992 31.4691 6.54931 31.6132C6.5549 31.6986 6.5627 31.7837 6.56935 31.869C6.57947 31.9991 6.5897 32.1293 6.60236 32.2591C6.61122 32.3501 6.62219 32.4407 6.63221 32.5314C6.64613 32.6551 6.66015 32.779 6.67629 32.9024C6.68853 32.9955 6.70224 33.0884 6.71574 33.1814C6.73324 33.3021 6.75138 33.4225 6.771 33.5428C6.78651 33.6367 6.80296 33.7304 6.81973 33.8241C6.84103 33.9428 6.86308 34.0613 6.88649 34.1795C6.90495 34.2733 6.92435 34.367 6.94418 34.4604C6.96918 34.5781 6.99554 34.6956 7.02265 34.8129C7.04417 34.9058 7.066 34.9986 7.08888 35.0911C7.11799 35.2087 7.14858 35.3258 7.1798 35.4429C7.20406 35.534 7.22821 35.6251 7.25384 35.7157C7.28727 35.8344 7.32271 35.9525 7.35836 36.0705C7.38483 36.1584 7.41088 36.2464 7.43862 36.334C7.47722 36.4559 7.51825 36.5771 7.55938 36.6983C7.58733 36.7808 7.61433 36.8635 7.64333 36.9457C7.68963 37.0767 7.73868 37.2067 7.78772 37.3369C7.81451 37.408 7.84003 37.4797 7.86756 37.5506C7.93379 37.7202 8.00319 37.8887 8.07407 38.0565C8.08694 38.0869 8.09854 38.1177 8.11162 38.1481C8.19631 38.346 8.28448 38.5424 8.37571 38.7375C8.40303 38.7961 8.43235 38.8536 8.4603 38.912C8.52548 39.0481 8.59097 39.1842 8.65942 39.3191C8.69686 39.3927 8.7362 39.4652 8.77449 39.5384C8.82479 39.6344 8.87373 39.7313 8.92573 39.8266L7.06716 40.8996C5.29887 37.6671 4.36769 34.0245 4.36769 30.3151ZM15.3702 49.4192C12.353 47.6652 9.78024 45.2069 7.88802 42.2782L9.73573 41.2114V41.2115L9.74923 41.2037C9.80217 41.2845 9.85733 41.3638 9.91144 41.4437C9.95605 41.5099 9.99993 41.5764 10.0453 41.642C10.1229 41.754 10.2025 41.8643 10.2824 41.9746C10.3218 42.0291 10.3603 42.0845 10.4004 42.1387C10.5117 42.2894 10.6253 42.4381 10.7406 42.5854C10.7507 42.5983 10.7603 42.6114 10.7703 42.6241C10.8963 42.7844 11.025 42.9423 11.1558 43.0984C11.1954 43.1457 11.2363 43.1917 11.2765 43.2387C11.3684 43.3463 11.4604 43.4539 11.5544 43.5595C11.6063 43.6179 11.6596 43.6747 11.712 43.7323C11.7965 43.8249 11.8809 43.9175 11.9669 44.0085C12.0248 44.0698 12.0839 44.1298 12.1426 44.1904C12.2255 44.2758 12.3085 44.361 12.3928 44.445C12.4548 44.5065 12.5177 44.5673 12.5803 44.6281C12.6636 44.7089 12.7474 44.7893 12.8321 44.8686C12.8968 44.9294 12.9624 44.9894 13.028 45.0492C13.1129 45.1266 13.1984 45.2034 13.2845 45.2793C13.3517 45.3385 13.419 45.397 13.4869 45.4552C13.5739 45.5299 13.6617 45.6036 13.75 45.6767C13.8187 45.7337 13.8877 45.7905 13.9572 45.8466C14.0471 45.9191 14.1378 45.9904 14.2289 46.0613C14.2986 46.1155 14.3681 46.1698 14.4385 46.2232C14.5323 46.2942 14.6274 46.3639 14.7227 46.4334C14.792 46.484 14.8609 46.5349 14.9308 46.5846C15.031 46.6558 15.1326 46.7251 15.2341 46.7945C15.3008 46.84 15.3667 46.8862 15.434 46.931C15.5475 47.0065 15.6623 47.0796 15.7774 47.1528C15.8341 47.1889 15.8903 47.2262 15.9474 47.2617C16.1204 47.3693 16.2949 47.4747 16.4713 47.577C16.6533 47.6826 16.8369 47.7848 17.022 47.8844C17.0829 47.9172 17.1447 47.9479 17.2059 47.9801C17.3307 48.0457 17.4556 48.1112 17.5819 48.1739C17.6556 48.2107 17.7302 48.2454 17.8044 48.2812C17.9195 48.3367 18.0344 48.3921 18.1503 48.4453C18.23 48.4819 18.3104 48.5167 18.3905 48.5522C18.5024 48.6017 18.6142 48.6511 18.7269 48.6984C18.8102 48.7335 18.8939 48.7671 18.9774 48.8008C19.0884 48.8457 19.1995 48.8903 19.3112 48.9331C19.3967 48.9658 19.4824 48.9976 19.5683 49.0292C19.6796 49.0701 19.7912 49.1104 19.9032 49.1494C19.9899 49.1796 20.0768 49.2091 20.1638 49.238C20.2765 49.2754 20.3894 49.3117 20.5027 49.347C20.5898 49.3744 20.6772 49.4012 20.7647 49.4274C20.8796 49.4615 20.9947 49.4942 21.1101 49.5262C21.1968 49.5504 21.2834 49.5746 21.3705 49.5975C21.4886 49.6287 21.6074 49.658 21.7262 49.687C21.8112 49.7077 21.896 49.7288 21.9813 49.7486C22.1054 49.7772 22.2301 49.8033 22.3547 49.8295C22.4351 49.8463 22.5154 49.8642 22.596 49.8802C22.7334 49.9073 22.8713 49.9315 23.0094 49.9558C23.0779 49.9678 23.1463 49.9812 23.215 49.9925C23.4088 50.0244 23.6033 50.0533 23.7983 50.0794C23.8114 50.0811 23.8244 50.0835 23.8374 50.0852C24.0456 50.1127 24.2545 50.1367 24.4636 50.1576C24.5304 50.1643 24.5972 50.1687 24.6641 50.1749C24.8065 50.1877 24.949 50.2004 25.0917 50.2102C25.1745 50.2159 25.2574 50.2194 25.3403 50.224C25.4423 50.2297 25.5441 50.237 25.6464 50.241V50.2573V52.3814C22.027 52.2504 18.49 51.2329 15.3702 49.4192ZM43.9862 39.8354L43.9716 39.827C44.0241 39.7308 44.0735 39.6329 44.1244 39.5358C44.1621 39.464 44.2008 39.3925 44.2375 39.3201C44.3071 39.183 44.3737 39.0447 44.44 38.9063C44.4668 38.8503 44.4951 38.7949 44.5214 38.7386C44.6129 38.5429 44.7014 38.3458 44.7862 38.1474C44.7965 38.1233 44.8059 38.0987 44.816 38.0745C44.8897 37.9005 44.9614 37.7259 45.0301 37.5499C45.0567 37.4818 45.0813 37.4129 45.107 37.3445C45.1571 37.2117 45.2073 37.0788 45.2545 36.9449C45.2829 36.8647 45.3092 36.7838 45.3366 36.7032C45.3783 36.5803 45.4199 36.4572 45.4592 36.3334C45.4866 36.2471 45.5121 36.1604 45.5383 36.0737C45.5743 35.9543 45.6101 35.8349 45.6439 35.7149C45.669 35.6253 45.693 35.5355 45.7169 35.4456C45.7485 35.3274 45.7794 35.209 45.8087 35.0901C45.8314 34.9985 45.853 34.9068 45.8742 34.8148C45.9016 34.6967 45.9281 34.5782 45.9532 34.4596C45.973 34.3668 45.992 34.274 46.0104 34.1809C46.034 34.062 46.0562 33.9426 46.0776 33.8231C46.0942 33.7301 46.1107 33.6369 46.1259 33.5437C46.1459 33.4228 46.1639 33.3019 46.1816 33.1806C46.195 33.0882 46.2086 32.9958 46.2207 32.9033C46.237 32.7792 46.2511 32.6548 46.265 32.5304C46.2752 32.4402 46.2859 32.3502 46.2948 32.2598C46.3075 32.1297 46.3177 31.9992 46.3279 31.8688C46.3347 31.7837 46.3424 31.6988 46.3479 31.6137C46.3573 31.4694 46.3637 31.3251 46.37 31.1805C46.373 31.1087 46.3777 31.037 46.3801 30.9651C46.3871 30.7488 46.3911 30.532 46.3911 30.3151C46.3911 30.1105 46.3876 29.9061 46.3813 29.7019C46.3793 29.6342 46.3749 29.5667 46.3722 29.4992C46.3665 29.3627 46.361 29.2262 46.3525 29.09C46.3474 29.0094 46.3406 28.9288 46.3347 28.8482C46.3255 28.7253 46.3164 28.6022 46.305 28.4794C46.2971 28.3939 46.2875 28.3087 46.2784 28.2233C46.266 28.1056 46.2534 27.9879 46.2388 27.8706C46.2279 27.7831 46.2158 27.6958 46.2038 27.6085C46.1879 27.4936 46.1717 27.3787 46.154 27.2642C46.1402 27.1759 46.1255 27.0879 46.1106 26.9998C46.0915 26.8864 46.0715 26.7733 46.0504 26.6604C46.0341 26.5723 46.017 26.4844 45.9993 26.3966C45.9766 26.2837 45.9526 26.1711 45.9282 26.0585C45.9092 25.9718 45.89 25.8852 45.8697 25.7986C45.8434 25.6851 45.8154 25.5721 45.7871 25.4591C45.7658 25.3744 45.7448 25.2897 45.7222 25.2053C45.6916 25.0901 45.6591 24.9753 45.6265 24.8606C45.6033 24.7795 45.5809 24.6984 45.5569 24.6177C45.5209 24.4971 45.4827 24.3773 45.4444 24.2574C45.4208 24.1835 45.3981 24.1093 45.3737 24.0356C45.3289 23.9009 45.2815 23.767 45.2339 23.6332C45.2132 23.5752 45.1939 23.517 45.1727 23.4592C45.1027 23.268 45.0298 23.0778 44.954 22.8887C44.9457 22.8683 44.9368 22.8482 44.9284 22.8278C44.8602 22.6596 44.7903 22.4925 44.7175 22.3263C44.6894 22.2626 44.6598 22.1996 44.6311 22.1361C44.5761 22.014 44.5211 21.8918 44.4635 21.7709C44.4286 21.6972 44.3919 21.6246 44.356 21.5514C44.3142 21.4663 44.2738 21.3806 44.2309 21.296L46.0911 20.2221C47.6887 23.3282 48.5298 26.8005 48.5298 30.3154C48.5298 34.0246 47.5985 37.6672 45.8303 40.9004L43.9862 39.8354Z" fill="#871F4D"/>
<path d="M17.784 21.4868C18.3343 22.4402 19.3605 23.0323 20.4622 23.0323C21.0019 23.0323 21.5352 22.8889 22.0046 22.6178C22.7194 22.2052 23.2306 21.5388 23.4442 20.7417C23.6578 19.9446 23.5481 19.1119 23.1355 18.3972C22.5853 17.444 21.5591 16.8518 20.4572 16.8518C19.9178 16.8518 19.3844 16.9951 18.9148 17.2662C18.2 17.6788 17.6888 18.3451 17.4752 19.1423C17.2616 19.9396 17.3713 20.7723 17.784 21.4868ZM19.0247 19.5574C19.1274 19.174 19.3731 18.8537 19.7169 18.6552C19.9429 18.5246 20.1991 18.4557 20.4573 18.4557C20.9879 18.4557 21.4819 18.7405 21.7465 19.1991C21.945 19.5428 21.9977 19.9432 21.895 20.3266C21.7924 20.71 21.5464 21.0303 21.2026 21.2289C20.9767 21.3593 20.7207 21.4283 20.4623 21.4283C19.9319 21.4283 19.4379 21.1434 19.1732 20.6849C18.9747 20.3412 18.9218 19.9408 19.0247 19.5574Z" fill="#871F4D"/>
<path d="M32.4349 37.598C31.8953 37.598 31.3621 37.7414 30.8925 38.0124C29.4171 38.8642 28.9098 40.7577 29.7617 42.2332C30.3119 43.1864 31.3381 43.7784 32.4399 43.7784C32.9793 43.7784 33.5126 43.6351 33.9823 43.364C34.6971 42.9513 35.2083 42.2852 35.422 41.4879C35.6357 40.6909 35.526 39.8581 35.1133 39.1432C34.563 38.1901 33.5366 37.598 32.4349 37.598ZM33.8728 41.0727C33.77 41.4562 33.5241 41.7765 33.1805 41.975C32.9543 42.1056 32.6982 42.1745 32.4399 42.1745C31.9094 42.1745 31.4154 41.8897 31.1507 41.4313C30.7411 40.7217 30.985 39.8112 31.6946 39.4015C31.9205 39.2711 32.1765 39.2021 32.4349 39.2021C32.9654 39.2021 33.4595 39.487 33.7243 39.9454C33.9228 40.2892 33.9756 40.6895 33.8728 41.0727Z" fill="#871F4D"/>
<path d="M12.2861 32.5C12.8696 33.0835 13.6454 33.4048 14.4708 33.4048C16.1746 33.4048 17.5606 32.0187 17.5606 30.315C17.5606 28.6112 16.1745 27.2252 14.4706 27.2252C12.767 27.2252 11.3809 28.6112 11.3809 30.315C11.381 31.1405 11.7024 31.9164 12.2861 32.5ZM14.4706 28.8294C15.29 28.8294 15.9567 29.4958 15.9567 30.3152C15.9567 31.1346 15.2902 31.801 14.4708 31.801H14.4706C14.074 31.801 13.7007 31.6465 13.4202 31.366C13.1396 31.0853 12.985 30.7122 12.985 30.3153C12.985 29.4959 13.6515 28.8294 14.4706 28.8294Z" fill="#871F4D"/>
<path d="M40.6113 28.1304C40.0277 27.5469 39.2518 27.2255 38.4264 27.2255C36.7228 27.2255 35.3368 28.6116 35.3366 30.3153C35.3366 31.1408 35.6582 31.9168 36.2416 32.5001C36.8253 33.0836 37.6012 33.405 38.4267 33.405C40.1301 33.405 41.5159 32.019 41.5162 30.3153C41.5163 29.49 41.195 28.714 40.6113 28.1304ZM38.427 31.8008H38.4267C38.0299 31.8008 37.6567 31.6463 37.376 31.3656C37.0954 31.0851 36.9409 30.712 36.9409 30.3152C36.941 29.4959 37.6075 28.8294 38.4268 28.8294C38.8236 28.8294 39.1967 28.9839 39.4772 29.2644C39.758 29.5451 39.9125 29.9183 39.9125 30.315C39.9123 31.1344 39.2459 31.8008 38.427 31.8008Z" fill="#871F4D"/>
<path d="M23.4444 39.8885C23.2307 39.0914 22.7195 38.4251 22.0048 38.0126C21.5354 37.7415 21.002 37.5981 20.4625 37.5981C19.3607 37.5981 18.3344 38.1903 17.7843 39.1434C17.3716 39.8581 17.2618 40.6907 17.4754 41.4879C17.689 42.2852 18.2003 42.9515 18.915 43.3641C19.3846 43.6352 19.9178 43.7785 20.4573 43.7785C21.5591 43.7785 22.5853 43.1862 23.1356 42.2331C23.5482 41.5183 23.6579 40.6856 23.4444 39.8885ZM21.7463 41.4312C21.4817 41.8897 20.9877 42.1745 20.4572 42.1745C20.1989 42.1745 19.9428 42.1055 19.7169 41.9751C19.3732 41.7766 19.1273 41.4563 19.0246 41.0728C18.922 40.6894 18.9747 40.2891 19.1732 39.9453C19.4379 39.4869 19.9319 39.2021 20.4625 39.2021C20.7208 39.2021 20.9768 39.2711 21.2028 39.4015C21.5465 39.5999 21.7922 39.9203 21.8949 40.3036C21.9977 40.6869 21.9449 41.0874 21.7463 41.4312Z" fill="#871F4D"/>
<path d="M46.5984 15.4597L51.2364 12.782L50.8476 12.0907C46.6527 4.63293 38.7379 0 30.1917 0H29.3897V3.74256V5.34653V25.3951L46.5984 15.4597ZM30.9937 1.61863C38.3887 1.888 45.1869 5.86923 49.0485 12.193L47.1891 13.2665C47.1304 13.171 47.0691 13.0777 47.0091 12.9834C46.9659 12.9156 46.9237 12.8471 46.8797 12.7802C46.7925 12.6469 46.7025 12.5158 46.6122 12.385C46.5803 12.3387 46.5495 12.2913 46.5172 12.2453C46.3929 12.0684 46.2659 11.8935 46.1365 11.7213C46.1192 11.6983 46.1009 11.676 46.0835 11.653C45.9712 11.5051 45.8577 11.3584 45.7416 11.2139C45.6977 11.1593 45.6523 11.1062 45.608 11.0521C45.5166 10.941 45.4254 10.8298 45.3318 10.7209C45.2788 10.659 45.2244 10.5986 45.1706 10.5374C45.0836 10.4382 44.9961 10.3391 44.9072 10.242C44.849 10.1784 44.7897 10.116 44.7309 10.0533C44.644 9.96078 44.5569 9.8685 44.4685 9.7778C44.4067 9.71441 44.3439 9.65208 44.2814 9.58964C44.1935 9.50179 44.105 9.41446 44.0156 9.32839C43.9512 9.26627 43.8858 9.20489 43.8205 9.14361C43.7306 9.05945 43.6403 8.97623 43.5491 8.89386C43.4822 8.83364 43.4153 8.77384 43.3478 8.71467C43.2555 8.63357 43.1623 8.55352 43.0686 8.4742C43.0005 8.41662 42.9322 8.35893 42.8632 8.30229C42.7676 8.2235 42.6708 8.14609 42.5736 8.06899C42.505 8.01457 42.4366 7.96004 42.3672 7.90657C42.2669 7.82916 42.1652 7.75343 42.0636 7.67791C41.9957 7.6275 41.9282 7.57666 41.8598 7.52709C41.7523 7.44947 41.6435 7.37385 41.5345 7.29844C41.4702 7.25382 41.4064 7.20837 41.3415 7.1646C41.2195 7.08212 41.096 7.00239 40.9723 6.92276C40.9189 6.88838 40.8662 6.85283 40.8124 6.81898C40.4552 6.5937 40.0909 6.3798 39.7202 6.17752C39.6661 6.14798 39.611 6.12035 39.5568 6.09135C39.4255 6.02132 39.2942 5.9515 39.1614 5.88442C39.0906 5.84866 39.019 5.8147 38.9477 5.77979C38.8299 5.7221 38.7121 5.6643 38.5931 5.60883C38.5149 5.57223 38.4359 5.53753 38.3571 5.50199C38.2436 5.45094 38.1304 5.40011 38.0161 5.35106C37.9333 5.31552 37.8499 5.28156 37.7668 5.24728C37.655 5.20119 37.5431 5.15552 37.4303 5.11144C37.3445 5.0779 37.2584 5.04531 37.172 5.01293C37.0606 4.97106 36.9487 4.92993 36.8363 4.89006C36.7486 4.85884 36.6604 4.82846 36.5723 4.79851C36.4596 4.76033 36.3469 4.72321 36.2334 4.68714C36.1447 4.65877 36.0558 4.63082 35.9665 4.60361C35.8523 4.5688 35.7375 4.53558 35.6226 4.50288C35.5333 4.47757 35.4441 4.45205 35.3545 4.42789C35.2375 4.39646 35.1201 4.36672 35.0024 4.3373C34.9138 4.31515 34.8257 4.29258 34.7369 4.2718C34.6152 4.24311 34.493 4.21685 34.3708 4.19038C34.2851 4.17192 34.1998 4.15262 34.114 4.13532C33.9829 4.10896 33.8511 4.08512 33.7194 4.06129C33.6415 4.04715 33.564 4.03186 33.4858 4.01868C33.3259 3.99178 33.1652 3.96795 33.0043 3.94495C32.9536 3.93768 32.9035 3.92903 32.8527 3.92217C32.6409 3.89338 32.4283 3.86828 32.215 3.84634C32.1595 3.84064 32.1038 3.83706 32.0483 3.83179C31.8901 3.81691 31.7317 3.80257 31.5728 3.7915C31.4928 3.78591 31.4123 3.78264 31.3321 3.778C31.2193 3.77146 31.107 3.76355 30.9938 3.75901V1.61863H30.9937ZM30.9937 5.36636C31.0769 5.37005 31.16 5.37427 31.2429 5.37912C31.3255 5.38397 31.4081 5.38798 31.4904 5.39388C31.6123 5.40264 31.7335 5.41382 31.8549 5.42489C31.9295 5.43175 32.0043 5.43755 32.0788 5.44525C32.2206 5.46001 32.3619 5.47763 32.503 5.49577C32.5564 5.50262 32.61 5.50811 32.6633 5.51538C32.8581 5.54207 33.0523 5.5717 33.2456 5.60461C33.2764 5.60988 33.307 5.61632 33.3378 5.6217C33.4999 5.65017 33.6615 5.67991 33.8224 5.71261C33.8861 5.72558 33.9492 5.74035 34.0127 5.75395C34.1401 5.78127 34.2674 5.80869 34.3939 5.83864C34.4666 5.85584 34.5387 5.87471 34.611 5.89275C34.7278 5.92197 34.8446 5.95128 34.9605 5.98271C35.0362 6.00328 35.1115 6.02501 35.1869 6.04652C35.2988 6.07838 35.4108 6.11075 35.5221 6.14471C35.5986 6.16802 35.6747 6.19239 35.7508 6.21675C35.8602 6.25177 35.9695 6.28741 36.0781 6.32443C36.1543 6.35038 36.2302 6.37696 36.3059 6.40385C36.414 6.44224 36.5217 6.48169 36.629 6.52208C36.7037 6.55024 36.7781 6.57851 36.8524 6.60762C36.9605 6.64991 37.0679 6.69357 37.1751 6.73798C37.2471 6.76772 37.3192 6.79746 37.3908 6.82815C37.5002 6.87509 37.6088 6.92371 37.7172 6.97275C37.7852 7.00344 37.8534 7.03371 37.9208 7.06525C38.0345 7.1183 38.1468 7.17325 38.2593 7.22851C38.3204 7.25857 38.3819 7.28789 38.4427 7.31858C38.5678 7.38176 38.6915 7.44746 38.815 7.51338C38.862 7.53838 38.9092 7.56232 38.9557 7.58784C39.2976 7.77442 39.6335 7.97164 39.9629 8.17952C40.0009 8.20357 40.0383 8.22888 40.0762 8.25325C40.2009 8.33319 40.3251 8.41388 40.4479 8.49688C40.5024 8.53379 40.5559 8.57197 40.61 8.60941C40.7151 8.68198 40.8199 8.75486 40.9235 8.82984C40.9833 8.87298 41.042 8.91728 41.1013 8.96126C41.1975 9.03255 41.2937 9.10438 41.3887 9.17768C41.4503 9.22514 41.5111 9.27366 41.5722 9.32217C41.6633 9.39431 41.754 9.46698 41.8437 9.54091C41.9054 9.59175 41.9664 9.64311 42.0276 9.69479C42.115 9.76883 42.2021 9.8435 42.2882 9.91923C42.349 9.9726 42.4095 10.0263 42.4695 10.0805C42.5545 10.1572 42.6387 10.2348 42.7223 10.3132C42.7813 10.3682 42.84 10.4234 42.8983 10.4794C42.9817 10.5595 43.0639 10.6411 43.1459 10.7229C43.2022 10.779 43.2587 10.8351 43.3143 10.8921C43.3973 10.9771 43.479 11.0637 43.5605 11.1506C43.6128 11.2063 43.6655 11.2613 43.7171 11.3177C43.8025 11.411 43.8862 11.506 43.9698 11.6012C44.0155 11.6532 44.0619 11.7043 44.107 11.7568C44.2042 11.8701 44.2992 11.9853 44.3938 12.1011C44.4234 12.1372 44.454 12.1725 44.4832 12.2089C44.6067 12.3623 44.728 12.5179 44.8468 12.6758C44.8702 12.7069 44.8926 12.7389 44.9158 12.7702C45.0098 12.8967 45.1031 13.024 45.1941 13.1533C45.2347 13.2112 45.2738 13.2703 45.314 13.3286C45.3856 13.4331 45.4575 13.5375 45.5272 13.6438C45.5713 13.7109 45.614 13.7793 45.6572 13.847C45.7046 13.9212 45.7516 13.9958 45.798 14.0708L30.994 22.618V5.36636H30.9937Z" fill="#871F4D"/>
<path d="M39.164 12.5126C38.9503 11.7148 38.4395 11.0484 37.7257 10.6362C37.256 10.365 36.7227 10.2218 36.1831 10.2218C35.0814 10.2218 34.0552 10.814 33.505 11.7671C32.6533 13.2425 33.1603 15.136 34.6359 15.9879C35.1054 16.259 35.6386 16.4022 36.1781 16.4022C37.28 16.4022 38.3062 15.81 38.8564 14.8569C39.2686 14.1429 39.3778 13.3105 39.164 12.5126ZM37.4673 14.0549C37.2025 14.5133 36.7085 14.7982 36.178 14.7982C35.9197 14.7982 35.6636 14.7292 35.4377 14.5988C34.7282 14.1891 34.4843 13.2785 34.894 12.569C35.1588 12.1106 35.6527 11.8258 36.1831 11.8258C36.4416 11.8258 36.6976 11.8948 36.9236 12.0252C37.2665 12.2233 37.5119 12.5437 37.6148 12.9277C37.7176 13.3117 37.6652 13.7119 37.4673 14.0549Z" fill="#871F4D"/>
</svg>
