<svg width="56" height="62" viewBox="0 0 56 62" fill="none" xmlns="http://www.w3.org/2000/svg">
<path d="M18.5888 3.90204C12.0013 3.90204 6.48901 7.01813 6.48901 10.6765C6.48901 14.3349 12.0013 17.451 18.5888 17.451C25.1765 17.451 30.6887 14.3349 30.6887 10.6765C30.6889 7.01813 25.1765 3.90204 18.5888 3.90204Z" fill="white"/>
<path d="M18.5888 12.0314C21.1432 12.0314 22.6222 10.9478 22.6222 10.6765C22.6222 10.4053 21.1432 9.32166 18.5888 9.32166C16.0345 9.32166 14.5557 10.4053 14.5557 10.6765C14.5557 10.9478 16.0347 12.0314 18.5888 12.0314Z" fill="#F04B4D"/>
<path d="M18.5889 14.7413C14.6904 14.7413 11.8667 12.9803 11.8667 10.6767C11.8667 8.37298 14.6902 6.61194 18.5889 6.61194C22.4876 6.61194 25.311 8.37298 25.311 10.6767C25.3112 12.9801 22.4878 14.7413 18.5889 14.7413ZM18.5889 9.32166C16.0346 9.32166 14.5557 10.4053 14.5557 10.6765C14.5557 10.9478 16.0346 12.0314 18.5889 12.0314C21.1432 12.0314 22.6222 10.9478 22.6222 10.6765C22.6224 10.4053 21.1434 9.32166 18.5889 9.32166Z" fill="#014463"/>
<path d="M30.6889 16.2319C27.9999 18.6703 23.6976 20.1609 18.5888 20.1609C13.4803 20.1609 9.1778 18.6705 6.48901 16.2319V24.2257C6.48901 27.8841 12.0013 31.0002 18.5888 31.0002C25.1765 31.0002 30.6887 27.8841 30.6887 24.2257V16.2319H30.6889Z" fill="#676A75"/>
<path d="M21.2777 22.3287V26.7997C21.2777 28.2901 20.0678 29.5094 18.5888 29.5094C12.0013 29.5094 6.48901 26.3933 6.48901 22.7349V24.2255C6.48901 27.8839 12.0013 31 18.5888 31C19.5301 31 20.4709 31 21.2777 30.8643C26.6553 30.1868 30.6889 27.4771 30.6889 24.2255V16.2319C28.9415 17.858 26.3864 19.0773 23.429 19.619C22.2191 19.8903 21.2777 20.9739 21.2777 22.3287Z" fill="#3E4251"/>
<path d="M29.2093 7.42493C29.2093 7.83111 29.3446 8.23808 29.3446 8.50854C29.3444 12.5733 23.1599 16.0962 15.9 16.0962C13.7488 16.0962 11.5977 15.8257 9.71558 15.283C12.0013 16.6379 15.0934 17.451 18.5888 17.451C25.1765 17.451 30.6888 14.3349 30.6888 10.6765C30.689 9.45741 30.1505 8.37361 29.2093 7.42493Z" fill="#D5E3EF"/>
<path d="M18.5888 1.19232C10.2531 1.19232 3.80005 5.39262 3.80005 10.6767V24.2257C3.80005 29.5096 10.2531 33.7101 18.5888 33.7101C26.9245 33.7101 33.3775 29.5098 33.3775 24.2257V10.6767C33.3775 5.39262 26.9247 1.19232 18.5888 1.19232ZM18.5888 3.90204C25.1765 3.90204 30.6887 7.01814 30.6887 10.6765C30.6887 14.3349 25.1763 17.451 18.5888 17.451C12.0013 17.451 6.48903 14.3349 6.48903 10.6765C6.48903 7.01814 12.0013 3.90204 18.5888 3.90204ZM30.6889 22.8707V24.2255C30.6889 27.8839 25.1765 31 18.589 31C12.0015 31 6.48923 27.8839 6.48923 24.2255V22.8707V16.2319C9.17802 18.6704 13.4806 20.1609 18.589 20.1609C23.6976 20.1609 28.0001 18.6706 30.6889 16.2319V22.8707Z" fill="#014463"/>
<path d="M40.0997 20.1609C33.5117 20.1609 28 23.2768 28 26.9354C28 30.594 33.5117 33.7099 40.0997 33.7099C46.688 33.7099 52.1997 30.5938 52.1997 26.9354C52.1997 23.277 46.688 20.1609 40.0997 20.1609Z" fill="white"/>
<path d="M50.7202 23.6838C50.8554 24.09 50.8554 24.3613 50.8554 24.7674C50.8554 28.8322 44.6702 32.3551 37.4111 32.3551C35.2592 32.3551 33.1087 32.0838 31.2258 31.5427C33.5118 32.8974 36.6036 33.71 40.0999 33.71C46.6868 33.71 52.1998 30.5939 52.1998 26.9355C52.1998 25.7161 51.6613 24.6325 50.7202 23.6838Z" fill="#D5E3EF"/>
<path d="M40.0998 28.2903C42.6549 28.2903 44.1332 27.2065 44.1332 26.9354C44.1332 26.6644 42.6549 25.5806 40.0998 25.5806C37.5449 25.5806 36.0667 26.6642 36.0667 26.9354C36.0667 27.2067 37.5449 28.2903 40.0998 28.2903Z" fill="#F04B4D"/>
<path d="M40.0999 31C36.2006 31 33.3777 29.239 33.3777 26.9353C33.3777 24.6315 36.2004 22.8705 40.0999 22.8705C43.9993 22.8705 46.822 24.6315 46.822 26.9353C46.822 29.239 43.9993 31 40.0999 31ZM40.0999 25.5806C37.545 25.5806 36.0667 26.6642 36.0667 26.9355C36.0667 27.2067 37.545 28.2903 40.0999 28.2903C42.655 28.2903 44.1332 27.2065 44.1332 26.9355C44.1332 26.6644 42.655 25.5806 40.0999 25.5806Z" fill="#014463"/>
<path d="M52.1999 32.4898C49.5109 34.9297 45.2086 36.4195 40.1 36.4195C34.9916 36.4195 30.689 34.9297 28.0002 32.4898V40.4842C28.0002 44.1426 33.5119 47.2587 40.1 47.2587C46.6883 47.2587 52.1999 44.1426 52.1999 40.4842V32.4898Z" fill="#676A75"/>
<path d="M44.9406 35.8771C43.7301 36.1484 42.7887 37.232 42.7887 38.5871V43.0592C42.7887 44.549 41.5794 45.7689 40.0997 45.7689C38.4862 45.7689 36.874 45.4979 35.3944 45.2266C34.185 44.9554 33.3776 43.8718 33.3776 42.6518V35.4712C31.2271 34.7937 29.3444 33.7101 28 32.49V40.4844C28 42.788 30.1519 44.8202 33.3776 46.039C35.2605 46.7162 37.6799 47.2589 40.0997 47.2589C41.0411 47.2589 41.9826 47.2589 42.7887 47.1238C48.1663 46.4466 52.1999 43.7366 52.1999 40.4844V32.49C50.4523 34.1161 47.8974 35.1997 44.9406 35.8771Z" fill="#3E4251"/>
<path d="M40.0998 17.451C31.7642 17.451 25.311 21.6514 25.311 26.9353V40.4842C25.311 45.7688 31.764 49.9687 40.0998 49.9687C48.4355 49.9687 54.8885 45.7688 54.8885 40.4842V26.9353C54.8885 21.6514 48.4357 17.451 40.0998 17.451ZM40.0998 20.161C46.688 20.161 52.1997 23.2769 52.1997 26.9355C52.1997 30.5941 46.688 33.71 40.0998 33.71C33.5117 33.71 28 30.5939 28 26.9355C28 23.2771 33.5117 20.161 40.0998 20.161ZM52.1999 37.7745V40.4844C52.1999 44.1428 46.6882 47.2589 40.1 47.2589C33.5119 47.2589 28.0002 44.1428 28.0002 40.4844V37.7745V32.4898C30.6892 34.9297 34.9915 36.4195 40.1 36.4195C45.2086 36.4195 49.5111 34.9297 52.1999 32.4898V37.7745Z" fill="#014463"/>
<path d="M15.9 31C9.3125 31 3.80005 34.1161 3.80005 37.7745C3.80005 41.4329 9.3125 44.549 15.9 44.549C22.4877 44.549 27.9999 41.4329 27.9999 37.7745C27.9999 34.1161 22.4877 31 15.9 31Z" fill="white"/>
<path d="M15.9001 39.1294C18.4544 39.1294 19.9335 38.0458 19.9335 37.7745C19.9335 37.5033 18.4546 36.4197 15.9001 36.4197C13.3458 36.4197 11.8667 37.5033 11.8667 37.7745C11.8667 38.0458 13.346 39.1294 15.9001 39.1294Z" fill="#F04B4D"/>
<path d="M15.9001 41.8391C12.0014 41.8391 9.17798 40.0782 9.17798 37.7745C9.17798 35.4709 12.0014 33.7099 15.9001 33.7099C19.7989 33.7099 22.6223 35.4709 22.6223 37.7745C22.6225 40.0782 19.7989 41.8391 15.9001 41.8391ZM15.9001 36.4194C13.3458 36.4194 11.8668 37.503 11.8668 37.7743C11.8668 38.0455 13.3458 39.1291 15.9001 39.1291C18.4545 39.1291 19.9335 38.0455 19.9335 37.7743C19.9335 37.503 18.4545 36.4194 15.9001 36.4194Z" fill="#014463"/>
<path d="M27.9999 43.3291C25.3111 45.7688 21.0086 47.2587 15.9 47.2587C10.7914 47.2587 6.48903 45.7688 3.80005 43.3291V51.3233C3.80005 54.9819 9.3125 58.0978 15.9 58.0978C22.4877 58.0978 27.9999 54.9819 27.9999 51.3233V43.3291Z" fill="#676A75"/>
<path d="M18.5888 49.4262V53.8985C18.5888 55.3883 17.3791 56.6082 15.9 56.6082C9.3125 56.6082 3.80005 53.4909 3.80005 49.8337V51.3235C3.80005 54.9821 9.3125 58.098 15.9 58.098C16.8413 58.098 17.7821 58.098 18.5888 57.9631C23.9666 57.2855 27.9999 54.5758 27.9999 51.3233V43.3291C26.2525 44.9552 23.6976 46.1751 20.7402 46.7163C19.5303 46.9875 18.5888 48.0711 18.5888 49.4262Z" fill="#3E4251"/>
<path d="M26.5212 34.5223C26.6556 34.9298 26.6556 35.1997 26.6556 35.6073C26.6556 39.6719 20.4712 43.1941 13.2113 43.1941C11.06 43.1941 8.90897 42.9231 7.02686 42.3818C9.3126 43.7366 12.4044 44.549 15.9001 44.549C22.4878 44.549 28 41.4329 28 37.7745C28 36.5546 27.4623 35.471 26.5212 34.5223Z" fill="#D5E3EF"/>
<path d="M15.9001 28.2903C7.56434 28.2903 1.11133 32.4898 1.11133 37.7745V51.3235C1.11133 56.6082 7.56434 60.8079 15.9001 60.8079C24.2358 60.8079 30.6888 56.6082 30.6888 51.3235V37.7745C30.689 32.4898 24.2358 28.2903 15.9001 28.2903ZM15.9001 31C22.4878 31 28 34.1161 28 37.7745C28 41.4329 22.4878 44.549 15.9001 44.549C9.31257 44.549 3.80012 41.4329 3.80012 37.7745C3.80012 34.1161 9.31257 31 15.9001 31ZM28 49.9686V51.3233C28 54.9819 22.4878 58.0978 15.9001 58.0978C9.31257 58.0978 3.80012 54.9819 3.80012 51.3233V49.9686V43.3291C6.4891 45.7687 10.7914 47.2587 15.9001 47.2587C21.0087 47.2587 25.3112 45.7687 28 43.3291V49.9686Z" fill="#014463"/>
</svg>
