<svg width="23" height="28" viewBox="0 0 23 28" fill="none" xmlns="http://www.w3.org/2000/svg">
<path d="M16.6667 7.33333C16.6667 8.74782 16.1048 10.1044 15.1046 11.1046C14.1044 12.1048 12.7478 12.6667 11.3333 12.6667C9.91885 12.6667 8.56229 12.1048 7.5621 11.1046C6.5619 10.1044 6 8.74782 6 7.33333C6 5.91885 6.5619 4.56229 7.5621 3.5621C8.56229 2.5619 9.91885 2 11.3333 2C12.7478 2 14.1044 2.5619 15.1046 3.5621C16.1048 4.56229 16.6667 5.91885 16.6667 7.33333ZM11.3333 16.6667C8.85798 16.6667 6.48401 17.65 4.73367 19.4003C2.98333 21.1507 2 23.5246 2 26H20.6667C20.6667 23.5246 19.6833 21.1507 17.933 19.4003C16.1827 17.65 13.8087 16.6667 11.3333 16.6667Z" stroke="#5E5E5E" stroke-width="3" stroke-linecap="round" stroke-linejoin="round"/>
</svg>
