<svg width="55" height="55" viewBox="0 0 55 55" fill="none" xmlns="http://www.w3.org/2000/svg">
<g clip-path="url(#clip0)">
<path d="M40.2779 17.9558H37.6988V10.1991C37.699 4.56642 33.1329 0.000122116 27.5002 2.44926e-09C21.8675 -0.000122111 17.3012 4.56593 17.3011 10.1986C17.3011 10.1988 17.3011 10.199 17.3011 10.1991V17.9558H14.722C14.1825 17.9558 13.7451 18.3932 13.7451 18.9327V28.311C13.868 35.3973 19.446 41.1842 26.523 41.5676V46.2469H23.7193C22.6402 46.2469 21.7655 47.1216 21.7655 48.2007V49.6856H20.2611C19.182 49.6856 18.3073 50.5603 18.3073 51.6394V53.0462C18.3073 54.1253 19.182 55 20.2611 55H34.7388C35.8179 55 36.6926 54.1253 36.6926 53.0462V51.6394C36.6926 50.5603 35.8179 49.6856 34.7388 49.6856H33.2441V48.2007C33.2441 47.1216 32.3694 46.2469 31.2903 46.2469H28.4768V41.5676C35.5539 41.1842 41.1319 35.3973 41.2548 28.311V18.9327C41.2548 18.3932 40.8174 17.9558 40.2779 17.9558ZM19.2549 10.1991C19.2549 5.64553 22.9463 1.95405 27.4999 1.95405C32.0535 1.95405 35.745 5.64553 35.745 10.1991V15.8456H19.2549V10.1991ZM19.2549 17.7995H35.745V20.8865H19.2549V17.7995ZM19.2549 22.8403H35.745V27.6662C35.745 32.2198 32.0535 35.9113 27.4999 35.9113C22.9463 35.9113 19.2549 32.2198 19.2549 27.6662V22.8403ZM34.7388 51.6394V53.0462H20.2611V51.6394H34.7388ZM31.2903 48.2007V49.6856H23.7193V48.2007H31.2903ZM27.4999 39.6626C21.1102 39.777 15.8325 34.7003 15.6989 28.311V19.9096H17.3108V27.6662C17.3133 33.2989 21.8814 37.8631 27.5141 37.8607C33.1434 37.8582 37.7062 33.2955 37.7086 27.6662V19.9096H39.3107V28.311C39.1771 34.7042 33.8934 39.7825 27.4999 39.6626Z" fill="white"/>
</g>
<defs>
<clipPath id="clip0">
<rect width="55" height="55" fill="white"/>
</clipPath>
</defs>
</svg>
