<svg width="25" height="28" viewBox="0 0 25 28" fill="none" xmlns="http://www.w3.org/2000/svg">
<path d="M16.6667 20.6667H23.3333L21.46 18.7933C21.2084 18.5417 21.0089 18.243 20.8728 17.9142C20.7366 17.5855 20.6666 17.2331 20.6667 16.8773V12.6667C20.6669 11.0119 20.1541 9.39779 19.199 8.04652C18.2438 6.69525 16.8933 5.67329 15.3333 5.12133V4.66667C15.3333 3.95942 15.0524 3.28115 14.5523 2.78105C14.0522 2.28095 13.3739 2 12.6667 2C11.9594 2 11.2811 2.28095 10.781 2.78105C10.281 3.28115 10 3.95942 10 4.66667V5.12133C6.89333 6.22 4.66667 9.184 4.66667 12.6667V16.8787C4.66667 17.596 4.38133 18.2853 3.87333 18.7933L2 20.6667H8.66667M16.6667 20.6667H8.66667M16.6667 20.6667V22C16.6667 23.0609 16.2452 24.0783 15.4951 24.8284C14.7449 25.5786 13.7275 26 12.6667 26C11.6058 26 10.5884 25.5786 9.83824 24.8284C9.08809 24.0783 8.66667 23.0609 8.66667 22V20.6667" stroke="#5E5E5E" stroke-width="3" stroke-linecap="round" stroke-linejoin="round"/>
</svg>
