<svg width="58" height="19" viewBox="0 0 58 19" fill="none" xmlns="http://www.w3.org/2000/svg">
<path d="M0 12.4902L0.0354567 17.1651L0.0407752 17.1722C0.0514122 18.2412 0.923646 19.0035 1.89693 18.9929L1.90934 19L15.1861 18.8936C16.2108 18.8848 17.0086 18.0498 16.9979 17.0446L16.9607 12.3643L16.3118 12.3731C16.5139 10.4301 18.8718 9.97273 23.5734 9.45329L34.8894 9.35579C37.6089 9.61994 40.2469 10.1092 40.4366 12.2225L40.0731 12.2242L40.1104 16.8992L40.1121 16.9063C40.121 17.9788 40.9968 18.7376 41.9718 18.7288L41.9825 18.7376L55.2575 18.6277C56.2839 18.6242 57.0782 17.7874 57.0711 16.7822L57.0321 12.1019L56.5516 12.1055C56.0836 9.26183 51.3927 0.0856395 29.2269 0.000543528C6.22442 -0.0827796 0.840323 9.43734 0.560215 12.4866L0 12.4902Z" fill="white"/>
</svg>
