<svg width="31" height="31" viewBox="0 0 31 31" fill="none" xmlns="http://www.w3.org/2000/svg">
<path d="M31 13.9667C30.9984 13.778 30.9227 13.5975 30.7891 13.4641C30.6555 13.3308 30.4748 13.2554 30.2861 13.2542H28.9778C28.5834 13.2542 28.1679 12.9485 28.0574 12.5718L26.2824 8.41803C26.0931 8.07884 26.1556 7.57202 26.4323 7.29331L27.3172 6.41048C27.4505 6.27637 27.5252 6.09501 27.5252 5.90597C27.5252 5.71693 27.4505 5.53556 27.3172 5.40145L25.1866 3.27492C25.0512 3.14124 24.8686 3.06628 24.6784 3.06628C24.4881 3.06628 24.3056 3.14124 24.1702 3.27492L23.2143 4.23662C22.9343 4.51534 22.4215 4.59225 22.0757 4.40951L18.46 2.96334C18.2669 2.89913 18.0979 2.77785 17.9752 2.61553C17.8525 2.4532 17.782 2.25747 17.773 2.05422V0.711253C17.7725 0.523004 17.6975 0.342594 17.5645 0.209358C17.4315 0.0761222 17.2512 0.000866797 17.063 0H14.0455C13.8572 0.000866797 13.6769 0.0761222 13.5439 0.209358C13.4109 0.342594 13.336 0.523004 13.3355 0.711253V2.05422C13.3355 2.44863 13.0258 2.85948 12.6544 2.97451L8.46279 4.76776C8.12685 4.96497 7.62591 4.89923 7.3452 4.62249L6.40577 3.68314C6.27145 3.55078 6.09044 3.47658 5.90186 3.47658C5.71328 3.47658 5.53228 3.55078 5.39796 3.68314L3.26731 5.81492C3.20044 5.8809 3.14735 5.95951 3.11111 6.04617C3.07488 6.13284 3.05622 6.22583 3.05622 6.31977C3.05622 6.4137 3.07488 6.5067 3.11111 6.59337C3.14735 6.68003 3.20044 6.75863 3.26731 6.82461L4.28892 7.85205C4.57095 8.12814 4.64786 8.63562 4.46642 8.98533L3.04313 12.5672C2.93795 12.9485 2.52773 13.2548 2.1346 13.2548H0.70934C0.52107 13.2562 0.340954 13.3318 0.208132 13.4653C0.0753094 13.5987 0.000514525 13.7791 0 13.9674V16.9813C0.000165257 17.17 0.0747631 17.3509 0.207586 17.4848C0.340409 17.6187 0.520723 17.6948 0.70934 17.6965H2.13197C2.3359 17.705 2.53262 17.7744 2.69669 17.8958C2.86076 18.0172 2.98465 18.185 3.05234 18.3776L4.79972 22.4991C5.00089 22.8383 4.9312 23.3419 4.66101 23.6206L3.68016 24.5948C3.54656 24.7288 3.47154 24.9104 3.47154 25.0996C3.47154 25.2889 3.54656 25.4704 3.68016 25.6045L5.81213 27.7343C5.94586 27.867 6.12663 27.9415 6.31505 27.9415C6.50346 27.9415 6.68423 27.867 6.81796 27.7343L7.86521 26.6917C8.01517 26.5536 8.20329 26.4639 8.40501 26.4344C8.60673 26.4048 8.81267 26.4368 8.99595 26.5261L12.6524 27.9841C13.0239 28.0919 13.3335 28.5027 13.3335 28.8925V30.2874C13.3342 30.476 13.4093 30.6566 13.5425 30.7901C13.6757 30.9235 13.8563 30.999 14.0448 31H17.0617C17.2501 30.9988 17.4303 30.9232 17.5633 30.7898C17.6963 30.6564 17.7712 30.4758 17.7717 30.2874V28.8932C17.7717 28.5027 18.078 28.0932 18.4587 27.9768L22.5464 26.2428C22.7262 26.1521 22.9292 26.118 23.1287 26.1449C23.3282 26.1719 23.5148 26.2587 23.664 26.3939L24.5844 27.3195C24.7189 27.4521 24.9003 27.5265 25.0893 27.5265C25.2782 27.5265 25.4596 27.4521 25.5941 27.3195L27.7255 25.187C27.7917 25.1209 27.8443 25.0423 27.8802 24.9558C27.916 24.8692 27.9345 24.7765 27.9345 24.6829C27.9345 24.5892 27.916 24.4965 27.8802 24.41C27.8443 24.3234 27.7917 24.2449 27.7255 24.1787L26.7393 23.1992C26.4685 22.9205 26.3922 22.4104 26.575 22.0659L28.0568 18.3808C28.1607 18.0009 28.5755 17.6972 28.9706 17.6939H30.2775C30.4662 17.6925 30.6468 17.6171 30.7804 17.4838C30.9139 17.3505 30.9897 17.17 30.9915 16.9813V13.9674L31 13.9667ZM15.501 20.5698C14.4989 20.5693 13.5195 20.2717 12.6866 19.7147C11.8537 19.1577 11.2046 18.3663 10.8214 17.4404C10.4383 16.5146 10.3382 15.496 10.5339 14.5133C10.7296 13.5307 11.2123 12.6281 11.921 11.9197C12.6296 11.2113 13.5324 10.7289 14.5152 10.5334C15.498 10.338 16.5167 10.4383 17.4425 10.8217C18.3683 11.205 19.1596 11.8543 19.7165 12.6873C20.2733 13.5203 20.5706 14.4997 20.5709 15.5016C20.5712 16.1674 20.4402 16.8267 20.1855 17.4418C19.9308 18.0569 19.5573 18.6157 19.0865 19.0864C18.6156 19.5571 18.0566 19.9304 17.4414 20.1849C16.8262 20.4395 16.1668 20.5702 15.501 20.5698Z" fill="#FF7070"/>
<path d="M31 13.9667C30.9984 13.778 30.9227 13.5975 30.7891 13.4641C30.6555 13.3308 30.4748 13.2554 30.2861 13.2542H28.9778C28.5834 13.2542 28.1679 12.9485 28.0574 12.5718L26.2824 8.41803C26.0931 8.07884 26.1556 7.57202 26.4323 7.29331L27.3172 6.41048C27.4505 6.27637 27.5252 6.09501 27.5252 5.90597C27.5252 5.71693 27.4505 5.53556 27.3172 5.40145L25.1866 3.27492C25.0512 3.14124 24.8686 3.06628 24.6784 3.06628C24.4881 3.06628 24.3056 3.14124 24.1702 3.27492L23.2143 4.23662C22.9343 4.51534 22.4215 4.59225 22.0757 4.40951L18.46 2.96334C18.2669 2.89913 18.0979 2.77785 17.9752 2.61553C17.8525 2.4532 17.782 2.25747 17.773 2.05422V0.711253C17.7725 0.523004 17.6975 0.342594 17.5645 0.209358C17.4315 0.0761222 17.2512 0.000866797 17.063 0H14.0455C13.8572 0.000866797 13.6769 0.0761222 13.5439 0.209358C13.4109 0.342594 13.336 0.523004 13.3355 0.711253V2.05422C13.3355 2.44863 13.0258 2.85948 12.6544 2.97451L8.46279 4.76776C8.12685 4.96497 7.62591 4.89923 7.3452 4.62249L6.40577 3.68314C6.27145 3.55078 6.09044 3.47658 5.90186 3.47658C5.71328 3.47658 5.53228 3.55078 5.39796 3.68314L3.26731 5.81492C3.20044 5.8809 3.14735 5.95951 3.11111 6.04617C3.07488 6.13284 3.05622 6.22583 3.05622 6.31977C3.05622 6.4137 3.07488 6.5067 3.11111 6.59337C3.14735 6.68003 3.20044 6.75863 3.26731 6.82461L4.28892 7.85205C4.57095 8.12814 4.64786 8.63562 4.46642 8.98533L3.04313 12.5672C2.93795 12.9485 2.52773 13.2548 2.1346 13.2548H0.70934C0.52107 13.2562 0.340954 13.3318 0.208132 13.4653C0.0753094 13.5987 0.000514525 13.7791 0 13.9674V16.9813C0.000165257 17.17 0.0747631 17.3509 0.207586 17.4848C0.340409 17.6187 0.520723 17.6948 0.70934 17.6965H2.13197C2.3359 17.705 2.53262 17.7744 2.69669 17.8958C2.86076 18.0172 2.98465 18.185 3.05234 18.3776L4.79972 22.4991C5.00089 22.8383 4.9312 23.3419 4.66101 23.6206L3.68016 24.5948C3.54656 24.7288 3.47154 24.9104 3.47154 25.0996C3.47154 25.2889 3.54656 25.4704 3.68016 25.6045L5.81213 27.7343C5.94586 27.867 6.12663 27.9415 6.31505 27.9415C6.50346 27.9415 6.68423 27.867 6.81796 27.7343L7.86521 26.6917C8.01517 26.5536 8.20329 26.4639 8.40501 26.4344C8.60673 26.4048 8.81267 26.4368 8.99595 26.5261L12.6524 27.9841C13.0239 28.0919 13.3335 28.5027 13.3335 28.8925V30.2874C13.3342 30.476 13.4093 30.6566 13.5425 30.7901C13.6757 30.9235 13.8563 30.999 14.0448 31H17.0617C17.2501 30.9988 17.4303 30.9232 17.5633 30.7898C17.6963 30.6564 17.7712 30.4758 17.7717 30.2874V28.8932C17.7717 28.5027 18.078 28.0932 18.4587 27.9768L22.5464 26.2428C22.7262 26.1521 22.9292 26.118 23.1287 26.1449C23.3282 26.1719 23.5148 26.2587 23.664 26.3939L24.5844 27.3195C24.7189 27.4521 24.9003 27.5265 25.0893 27.5265C25.2782 27.5265 25.4596 27.4521 25.5941 27.3195L27.7255 25.187C27.7917 25.1209 27.8443 25.0423 27.8802 24.9558C27.916 24.8692 27.9345 24.7765 27.9345 24.6829C27.9345 24.5892 27.916 24.4965 27.8802 24.41C27.8443 24.3234 27.7917 24.2449 27.7255 24.1787L26.7393 23.1992C26.4685 22.9205 26.3922 22.4104 26.575 22.0659L28.0568 18.3808C28.1607 18.0009 28.5755 17.6972 28.9706 17.6939H30.2775C30.4662 17.6925 30.6468 17.6171 30.7804 17.4838C30.9139 17.3505 30.9897 17.17 30.9915 16.9813V13.9674L31 13.9667ZM15.501 20.5698C14.4989 20.5693 13.5195 20.2717 12.6866 19.7147C11.8537 19.1577 11.2046 18.3663 10.8214 17.4404C10.4383 16.5146 10.3382 15.496 10.5339 14.5133C10.7296 13.5307 11.2123 12.6281 11.921 11.9197C12.6296 11.2113 13.5324 10.7289 14.5152 10.5334C15.498 10.338 16.5167 10.4383 17.4425 10.8217C18.3683 11.205 19.1596 11.8543 19.7165 12.6873C20.2733 13.5203 20.5706 14.4997 20.5709 15.5016C20.5712 16.1674 20.4402 16.8267 20.1855 17.4418C19.9308 18.0569 19.5573 18.6157 19.0865 19.0864C18.6156 19.5571 18.0566 19.9304 17.4414 20.1849C16.8262 20.4395 16.1668 20.5702 15.501 20.5698Z" fill="url(#paint0_linear)"/>
<defs>
<linearGradient id="paint0_linear" x1="15.5" y1="0" x2="15.5" y2="31" gradientUnits="userSpaceOnUse">
<stop stop-color="#D06BFF"/>
<stop offset="1" stop-color="white" stop-opacity="0"/>
</linearGradient>
</defs>
</svg>
