<svg width="22" height="19" viewBox="0 0 22 19" fill="none" xmlns="http://www.w3.org/2000/svg">
<path d="M2.89498 10.9824L2.89498 15.499V17.3031C2.89498 18.0438 3.49544 18.6443 4.23615 18.6443H17.7476C18.4883 18.6443 19.0888 18.0449 19.0888 17.3042V10.722C19.0888 10.1187 19.5051 9.61001 20.0394 9.32994C23.6636 7.43046 21.5278 1.78465 17.9905 2.91074C16.9959 3.22739 15.654 2.89093 15.0534 2.03726C13.4503 -0.241079 10.5018 -0.882142 8.27079 1.53764C7.56425 2.30395 6.20847 2.33955 5.25834 1.91097C2.69466 0.754572 0 4.20541 0 5.9647C0 7.31625 0.42336 8.7758 1.65836 9.39649C2.2994 9.71867 2.89498 10.265 2.89498 10.9824Z" fill="#ED1E1D" fill-opacity="0.8"/>
</svg>
