<svg width="8" height="9" viewBox="0 0 8 9" fill="none" xmlns="http://www.w3.org/2000/svg">
<path d="M2.64286 4.95H1.92857C1.81071 4.95 1.71429 4.85719 1.71429 4.74375V4.05625C1.71429 3.94281 1.81071 3.85 1.92857 3.85H2.64286C2.76071 3.85 2.85714 3.94281 2.85714 4.05625V4.74375C2.85714 4.85719 2.76071 4.95 2.64286 4.95ZM4.57143 4.74375V4.05625C4.57143 3.94281 4.475 3.85 4.35714 3.85H3.64286C3.525 3.85 3.42857 3.94281 3.42857 4.05625V4.74375C3.42857 4.85719 3.525 4.95 3.64286 4.95H4.35714C4.475 4.95 4.57143 4.85719 4.57143 4.74375ZM6.28571 4.74375V4.05625C6.28571 3.94281 6.18929 3.85 6.07143 3.85H5.35714C5.23929 3.85 5.14286 3.94281 5.14286 4.05625V4.74375C5.14286 4.85719 5.23929 4.95 5.35714 4.95H6.07143C6.18929 4.95 6.28571 4.85719 6.28571 4.74375ZM4.57143 6.39375V5.70625C4.57143 5.59281 4.475 5.5 4.35714 5.5H3.64286C3.525 5.5 3.42857 5.59281 3.42857 5.70625V6.39375C3.42857 6.50719 3.525 6.6 3.64286 6.6H4.35714C4.475 6.6 4.57143 6.50719 4.57143 6.39375ZM2.85714 6.39375V5.70625C2.85714 5.59281 2.76071 5.5 2.64286 5.5H1.92857C1.81071 5.5 1.71429 5.59281 1.71429 5.70625V6.39375C1.71429 6.50719 1.81071 6.6 1.92857 6.6H2.64286C2.76071 6.6 2.85714 6.50719 2.85714 6.39375ZM6.28571 6.39375V5.70625C6.28571 5.59281 6.18929 5.5 6.07143 5.5H5.35714C5.23929 5.5 5.14286 5.59281 5.14286 5.70625V6.39375C5.14286 6.50719 5.23929 6.6 5.35714 6.6H6.07143C6.18929 6.6 6.28571 6.50719 6.28571 6.39375ZM8 1.925V7.975C8 8.43047 7.61607 8.8 7.14286 8.8H0.857143C0.383929 8.8 0 8.43047 0 7.975V1.925C0 1.46953 0.383929 1.1 0.857143 1.1H1.71429V0.20625C1.71429 0.0928125 1.81071 0 1.92857 0H2.64286C2.76071 0 2.85714 0.0928125 2.85714 0.20625V1.1H5.14286V0.20625C5.14286 0.0928125 5.23929 0 5.35714 0H6.07143C6.18929 0 6.28571 0.0928125 6.28571 0.20625V1.1H7.14286C7.61607 1.1 8 1.46953 8 1.925ZM7.14286 7.87188V2.75H0.857143V7.87188C0.857143 7.92859 0.905357 7.975 0.964286 7.975H7.03571C7.09464 7.975 7.14286 7.92859 7.14286 7.87188Z" fill="#FFF9F9"/>
</svg>
