<svg width="35" height="36" viewBox="0 0 35 36" fill="none" xmlns="http://www.w3.org/2000/svg">
<rect width="35" height="36" rx="3" fill="#FFF9F9"/>
<path d="M17.804 30.048C16.46 30.048 15.164 29.808 13.916 29.328C12.692 28.824 11.72 28.212 11 27.492L13.196 24.18C13.652 24.732 14.276 25.176 15.068 25.512C15.884 25.848 16.676 26.016 17.444 26.016C18.572 26.016 19.52 25.656 20.288 24.936C21.056 24.216 21.44 23.244 21.44 22.02C21.44 20.7 21.068 19.62 20.324 18.78C19.58 17.94 18.524 17.52 17.156 17.52C16.364 17.52 15.608 17.628 14.888 17.844C14.192 18.06 13.436 18.408 12.62 18.888H12.584V6H24.14V10.032H16.184V14.208C16.832 14.064 17.492 13.992 18.164 13.992C19.796 13.992 21.176 14.364 22.304 15.108C23.432 15.828 24.284 16.788 24.86 17.988C25.46 19.164 25.76 20.46 25.76 21.876C25.76 23.412 25.412 24.804 24.716 26.052C24.02 27.276 23.072 28.248 21.872 28.968C20.672 29.688 19.316 30.048 17.804 30.048Z" fill="#F14B4A"/>
</svg>
