<svg width="154" height="158" viewBox="0 0 154 158" fill="none" xmlns="http://www.w3.org/2000/svg">
<path d="M0 17.3577C0 7.77131 7.77133 0 17.3577 0H135.756C145.342 0 153.113 7.77133 153.113 17.3577V140.642C153.113 150.229 145.342 158 135.756 158H17.3577C7.77133 158 0 150.229 0 140.642V17.3577Z" fill="#A800F8"/>
<path d="M0 17.3577C0 7.77131 7.77133 0 17.3577 0H135.756C145.342 0 153.113 7.77133 153.113 17.3577V140.642C153.113 150.229 145.342 158 135.756 158H17.3577C7.77133 158 0 150.229 0 140.642V17.3577Z" fill="url(#paint0_linear)"/>
<path d="M50.8073 95.9368L55.8559 114.756L57.8726 122.274C58.7005 125.36 61.8737 127.191 64.96 126.363L121.259 111.26C124.346 110.432 126.178 107.263 125.35 104.177L117.992 76.7506C117.318 74.2367 118.484 71.6518 120.397 69.8875C133.375 57.9217 118.165 36.7844 104.685 45.4304C100.894 47.8616 94.9269 47.9595 91.4699 45.0739C82.2437 37.3724 69.2413 37.9971 62.6499 50.5736C60.5625 54.5564 54.953 56.2202 50.515 55.4964C38.5401 53.5436 31.1694 70.9346 33.1359 78.2651C34.6466 83.8967 38.0421 89.5051 43.8819 90.7109C46.9131 91.3368 50.0054 92.9474 50.8073 95.9368Z" fill="#CDEDFF" fill-opacity="0.5"/>
<path d="M41.8492 89.8286L46.8978 108.648L48.9145 116.166C49.7424 119.252 52.9156 121.083 56.0019 120.255L112.301 105.152C115.388 104.324 117.22 101.155 116.392 98.069L109.034 70.6425C108.36 68.1286 109.526 65.5437 111.439 63.7794C124.417 51.8135 109.207 30.6762 95.7265 39.3223C91.9361 41.7534 85.9688 41.8514 82.5118 38.9657C73.2856 31.2643 60.2832 31.8889 53.6917 44.4654C51.6043 48.4482 45.9949 50.112 41.5569 49.3883C29.582 47.4355 22.2113 64.8264 24.1778 72.157C25.6885 77.7886 29.084 83.3969 34.9238 84.6028C37.955 85.2287 41.0473 86.8392 41.8492 89.8286Z" fill="white"/>
<path d="M63.5259 64.0328V93.5044C63.5259 96.314 66.6894 97.9575 68.9901 96.3449L91.3717 80.656C93.416 79.223 93.3248 76.1654 91.1987 74.8568L68.8171 61.0812C66.5041 59.6576 63.5259 61.3168 63.5259 64.0328Z" fill="#D06BFF"/>
<defs>
<linearGradient id="paint0_linear" x1="-1.09096e-08" y1="157.753" x2="142.759" y2="158" gradientUnits="userSpaceOnUse">
<stop stop-color="#FE3A38"/>
<stop offset="0.795669" stop-color="#FFEB63" stop-opacity="0.1"/>
<stop offset="1" stop-color="white" stop-opacity="0"/>
</linearGradient>
</defs>
</svg>
