<svg width="41" height="39" viewBox="0 0 41 39" fill="none" xmlns="http://www.w3.org/2000/svg">
<path d="M8.55348 25.0624L10.7426 33.2228L11.617 36.4824C11.976 37.8207 13.3519 38.6146 14.6902 38.2555L39.1021 31.7068C40.4403 31.3478 41.2347 29.9738 40.8757 28.6355L37.6854 16.7431C37.393 15.6531 37.8986 14.5323 38.7283 13.7673C44.3557 8.57876 37.7603 -0.586571 31.9152 3.16243C30.2716 4.21661 27.6841 4.25909 26.1851 3.00784C22.1846 -0.331579 16.5466 -0.0607233 13.6885 5.39256C12.7834 7.11954 10.3511 7.84097 8.42672 7.52715C3.23431 6.6804 0.0382882 14.2213 0.890984 17.3999C1.54606 19.8418 3.01838 22.2736 5.55056 22.7965C6.8649 23.0679 8.20575 23.7662 8.55348 25.0624Z" fill="white"/>
<path d="M8.55348 25.0624L10.7426 33.2228L11.617 36.4824C11.976 37.8207 13.3519 38.6146 14.6902 38.2555L39.1021 31.7068C40.4403 31.3478 41.2347 29.9738 40.8757 28.6355L37.6854 16.7431C37.393 15.6531 37.8986 14.5323 38.7283 13.7673C44.3557 8.57876 37.7603 -0.586571 31.9152 3.16243C30.2716 4.21661 27.6841 4.25909 26.1851 3.00784C22.1846 -0.331579 16.5466 -0.0607233 13.6885 5.39256C12.7834 7.11954 10.3511 7.84097 8.42672 7.52715C3.23431 6.6804 0.0382882 14.2213 0.890984 17.3999C1.54606 19.8418 3.01838 22.2736 5.55056 22.7965C6.8649 23.0679 8.20575 23.7662 8.55348 25.0624Z" fill="url(#paint0_linear)"/>
<defs>
<linearGradient id="paint0_linear" x1="17.7999" y1="1.31157" x2="26.8365" y2="34.9972" gradientUnits="userSpaceOnUse">
<stop stop-color="white"/>
<stop offset="1" stop-color="white" stop-opacity="0"/>
</linearGradient>
</defs>
</svg>
