<svg width="31" height="32" viewBox="0 0 31 32" fill="none" xmlns="http://www.w3.org/2000/svg">
<path d="M29.7383 1.04931L29.7009 1.01513C28.9842 0.36054 28.0553 0 27.0852 0C25.9976 0 24.9533 0.460402 24.2201 1.26305L10.3562 16.4412C10.2298 16.5796 10.134 16.7428 10.0747 16.9205L8.44453 21.8076C8.25605 22.3726 8.35065 22.9974 8.69754 23.479C9.04719 23.9643 9.61049 24.2541 10.2045 24.2541H10.2046C10.4615 24.2541 10.7126 24.2012 10.9508 24.097L15.6709 22.0321C15.8425 21.9571 15.9964 21.8468 16.1227 21.7085L29.9867 6.53041C31.4294 4.95109 31.3181 2.49246 29.7383 1.04931ZM11.5679 20.9048L12.5245 18.0371L12.6052 17.9487L14.4183 19.6047L14.3376 19.6931L11.5679 20.9048ZM28.01 4.72477L16.2239 17.6281L14.4108 15.9721L26.1969 3.06869C26.4274 2.81632 26.7429 2.67728 27.0852 2.67728C27.3855 2.67728 27.6732 2.78901 27.8957 2.9923L27.9331 3.02648C28.4225 3.4735 28.457 4.23536 28.01 4.72477Z" fill="#ED1E1D" fill-opacity="0.8"/>
<path d="M27.0488 12.3501C26.3095 12.3501 25.7102 12.9495 25.7102 13.6888V25.0535C25.7102 26.9306 24.1829 28.4579 22.3058 28.4579H6.08161C4.20439 28.4579 2.67728 26.9306 2.67728 25.0535V8.96113C2.67728 7.084 4.20448 5.55679 6.08161 5.55679H17.8248C18.5641 5.55679 19.1634 4.95744 19.1634 4.21815C19.1634 3.47887 18.5641 2.87952 17.8248 2.87952H6.08161C2.72814 2.87952 0 5.60775 0 8.96113V25.0534C0 28.4068 2.72823 31.135 6.08161 31.135H22.3057C25.6591 31.135 28.3873 28.4068 28.3873 25.0534V13.6888C28.3874 12.9495 27.7881 12.3501 27.0488 12.3501Z" fill="#ED1E1D" fill-opacity="0.8"/>
</svg>
